<mxfile host="app.diagrams.net" modified="2023-08-15T06:42:25.909Z" agent="Mozilla/5.0 (Windows NT 10.0; Win64; x64) AppleWebKit/537.36 (KHTML, like Gecko) Chrome/115.0.0.0 Safari/537.36" etag="JlAU0yAFRKSXOe0_WJE0" version="21.6.8" type="device">
  <diagram name="Page-1" id="S79_t3DY-m8j5pnOIXbV">
    <mxGraphModel dx="1235" dy="675" grid="1" gridSize="10" guides="1" tooltips="1" connect="1" arrows="1" fold="1" page="1" pageScale="1" pageWidth="850" pageHeight="1100" math="0" shadow="0">
      <root>
        <mxCell id="0" />
        <mxCell id="1" parent="0" />
        <mxCell id="iPt_SDVUK2NoFskj7es--8" value="" style="shape=image;verticalLabelPosition=bottom;labelBackgroundColor=default;verticalAlign=top;aspect=fixed;imageAspect=0;image=data:image/png,iVBORw0KGgoAAAANSUhEUgAAA1YAAAHqCAYAAAAHy99MAAAAAXNSR0IArs4c6QAAAARnQU1BAACxjwv8YQUAAAAJcEhZcwAADsMAAA7DAcdvqGQAALtHSURBVHhe7P0JfFXVuT/+f5KQAAGSQBgCIhChVisghIoEHLF6671V4cQ4JNah1lovv3ullCsqKa0hXO1V8Fr1f/ut2lbbBG1IIKiU1opjEyeCGFFUIIEAOZAASSCQ+fzXWnvtc/Y+Q3KSkxE+79drkT2sPZ4k7CfrWWuHuQQQERERERFRp4Xrr0RERERERNRJDKyIiIiIiIhCxMCKiIiIiIgoRAysiIiIiIiIQsTAioiIiIiIKEQMrIiIiIiIiELEwIqIiIiIiChEDKyIiIiIiIhCxMCKiIiIiIgoRAysiIiIiIiIQsTAioiIiIiIKEQMrIiIiIiIiELEwIqIiIiIiChEYS5BTxMRERFRL8vNzdVTRNSTUlNT9VTnMLAiIiIi6kNkYPVZVAqGjwQGDtILO2nKuBY9RURtqX1/Q8iBFVMBiYiIiPqYmOhwRLSEo7Y5HAfDOl+IqOewxYqIiIioD5EtVmVxqTjRBOxsbsWeMLFwYOeCpGeT2WJFFIy9m/OZCkhERER0OpGB1Tcxqag4CfyzugXbmsSj2pABem3HfJOuJ4ioTdvEzx1TAYmIiIhOM6daoVqsGhrFTJ0IrCo7WYiox7DFioiIiKgPkS1We2JT4WwA3qtpwdZKEWEdlSl9kaLIvMDg7XxEbkNE7fksL/QWKwZWRERERH2I2cfK2Qi8W92CTw6LwEqWE+FAq64UpO1rovVU9+MTJfVnX7+6joEVERER0enEb2B1SJRjzR0OrD56MlZPdT8+UlJ/xsEriIiIiE4z/gMrMXNMlNaOPba9++vheio4zhoXNnzaggUzIpAQ27G0w6BVvoniDZ9i4KU/xwXnAXWFz2P7jlhMvicVY3SV7nEYe17+E6on/BBJc0frZb3vaN5NWPCT9cANL2HD72/FCHyAl+IvxfNi3Y//1oTbv2vU65965lp2PBGJrVeEtn/nm+s5eAURERER+XeywRV0+bC0HmuLq7Gv5rj6Kuf91QtU6uqDLAPCMVCc27BIY3646gYWhlHe9bq8hGGEePIdGBnmZ13vlfiBOoCNDEe8WhaGccYSjIvyrd+/SndfSwVeuyMS9z0a+v67AgMrIiIiotNUY7MrYDlY3YrC3c346xd12PTFCWypaEJxawTKh0Sor3JeLpfrZT1Z399+zNLUEmQxW91cxryZ3djqXa/Liz6Q4H997xRrdqdxD/SMpO9R/y36OqRuuZZwnDOoa/bfFRhYEREREfV1l0Tj2P8bCddzI1RalennP5fLRsH1VBx+rpdZ+QuAzHKgugXv723AZmcT/upsxra6CBwOH+Iucl4ul+tlPVnf337M0tAUoBzegm9ynsQXupR+ZZyb7I0i15vPtEc/esFd54ucdaj03k8w5at1ln2IUrAFtZb16lAuJw4UBK4jS63tXJ7ENx8dsq2vfFMsf/Nz42sb+/FXSp4ciOsn6PLTtdhreaZvVnXEKep5l+sDrDXrirIq3+mzv7aLZ/u1H7W1L0u9Jx9111n7kWdftvMWxe+5lK/FKkudtR9Zr8Wocyj/ZmO9uPZD7m2t52kuk8WJN3/q2d/1E27Gm+XWbcbjp+uM/WfOl+sfRYnX/sxi369v6QoMrIiIiIj6vHAMVV8jkHKnmhAG46ff0mlkA/0/0p1qdAUsNfWNcDbW49CIaFTEDcXJ8MEYVDfQXeS8XC7Xy3qyvr/9tFkOv4Wyf2xH9Kw7sWzZMlGuxYgd21AjT048aMs6zepM92LX4Sm4U9VZhmsnlaMyNw9HvPfXVvkmD7u31iLpDmMfy5bdiaQB27H/7c91HeMhv2b73xE9T9e5IwmxddtxZOth936OvP2/2L8rzLMfUSd6Vw7KLHUmyFaSQ2+gctC19mO9/hZqdR1/peSpQVj+pLpgw6Y7cfud+XpGBFaqnicYWXnV5Virp6UPF0/Er9c7ffYbuERgst527Y1t7ctS78lf6SkH5n9HrnNiyyKv8xbk9qlPfaC3F2Xfy/j1vDvxoV4vrb3xEqzU065Wo96EWP29Gj0AE8xtLcefHGsu+wCvTJ6IpzbpFcoGPDXvZmzZZ9/GIwLfUtvZr1Vae+MgvPKxuW/f0hUYWBERERH1de83okynVcUlDTMmrh6MSRHGZOM3p7DamLSpFw+MgUqTiGjMx8n6I1E4Z8gA3Hixy13kvFwuyXqyvr/9mMVfK0Dt19vREpuEHySPwPMlp0S5AD/4/kS1TxlYyTpGi1Uskq6/CmWqzikMXHAtJqIcjdsP++wzUKlrrhX7icNAl7GP50tG4IJ7RNCTPsNdRx1q0rW4fpKu47oKsyeJALTqC9TJOlVvobESmPj9e3GBuR9R5wezYtGy5313i5SRzTgR1y68wHOs60SQdnI7mvd4zslePkDtb+R2ImTJqVAtOC5XIbKMRYrZYuWWmo0KVc+Fwkxj0SdLX8QXPvsOVIxtFH/7+ue7OByw3jr8a5wLhzcuxv9tliscyC43tneVZ4s54TdXIH+rcazDXxbgE7lMXFGhPk5FjqplEPOynhFIG4zr9Tq+rnd441MwGqM8+zPOuwD/t+kDUWcOfu6qQLYebyKrSNZZjun7y9FgLPHaDli3XW5nHtNeugIDKyIiIqI+rxG/PaInBw9U6YA/vyICA9QCF/60+pSaCtaH5afwXnULDsUNxYlDg3Dx2eG4fFwLLmhudBc5L5fL9bKerC+3C14lRteJkGnyNBzYYz5ON2Ld4HgRRnmJnYyx4Q0o0bPvfX0BJomA52SLedHtm/mdyWK/e1H00m9QWy6XNGPTFyLo+bpRrTfFxo3Cuv16pqoBVbKTU1gYviXnW6txUuxl6OB6bKqSCwRR58Bkue99GKz2q006HwPd+xbHCp+GSeLCml0iMvPns/fwv2oiC/dfH68DstlItQYfXrIW34K9qt4pjEjXwQy2Y+QhNdEhfve1fj3qvPblqSfvwSHUfbBBLXfkPIMrIoztn4+4BffrYGXDDtlGJeq9sV7NO3J+hBH6OHuv/7ktcOyI2OO++xvxgBEouVZeKtaI76WSJhzTMVH9ceOc37sgEcbggBmYKz7XsLBfYZ+53S/ldt2HgRURERFRP7D6nRb91/4wpNw5GD+NVzPAqQb8WE8G4/ODwN6jLTjW5ELjgAFoaQhH7CBg+EAXhrS2uoucl8vlellP1pfbye2DcwQnZSNSc4s7YFKGjUaMnvRw4ZAZyCiNqNUBT7BKBl2FHy2TLV1AU8lvcGSTLH9Enco7tBDXFlCkPF4cYnSjoKmkznh6j7KOXt/qwnt6UqlqQb34Eh6umxG9jTavxYUKS6B5LGGmnvbmwJhYS7A5eCIu1NODRuiJoAXaVxjivfZVX+epJ1Pr4vXlXJgw0hZsRkzUAWGkHNbRU6+1odl9X0r2TMSYTo1gfgg1XxpT1v2997UO7LyCZZuqOfjPIms49whuGSQDrDDMesoaGXc9BlZERERE/cE/6i3pgNEYqx9kq4uPGxN9TgLi/b2fePchVOvJwCpR034lO/Gw/1LJBfi+6vMkiwyyalH/z3ydGhasahzarSdtYhFnBrN+HUaNdxBnNS5RtzjZvb97m57ylo9dpXpS2lGqU+06I/R9fbL7gJ4yfPmNp2+Y/KwnTNWTNnuwK1dPdshZOHeanuywRqz79sNGC5UsZtqiULzsJfj9aLsIAysiIiKifuEUfvuNnhwcjiFqwoW8P6qJoE0dB0wcEYHhkWGIam5GxMBW1NQDxxrCUBce7i5yXi6X62U9WV9uJ7cPzkjExAE1ZZ/b+tWg9Qh8QsEa72VGa1fsiI6+Mlimh+lWDRlkycEpxJ5HtxXwWMXLNMUanPRq1GrevUcs9WrJ2velPWCrqUSd2HrSeQFePjxikm4l+gVe+KuZf/chdt1jDVDsfv38K8ZAH8Luv/8Qr8qJVAfmjVWLOqRz+0rAvAVGWPLqPT/Dh+ZpH3oFf9GNQlnfmyP+bcaIRKPehrv+4A5eav76JH6tp32sK4XZ+Fnz19VeKYOB9ncr7pkejXuWeq7FtH2vPrnPfo17RoSrFMCH5PdBxC1Y6w6uOpdGGSwGVkRERET9xOrV9fbWng6mAZouPnswLo2LwJjqExg6ph4flrfinYMR2DEgyl3kvFwu18t6sr7cLnjNGDNXBDa1n6LhC7Pf0Q7UFu3T01b78NVbb7sDsIaP/g4nJmL2JSP1kvY1f/FHHNlkbZ1qRPbfi1ETOxnn+w4f598wYzALZ5ElhbDmbTTsrEHsrCswxpauuA8nPtqhp0VQtX0bjk9KxvRBtjDSo2oObtH9qd5YlmgECNOvxG/VkgAK7sJSVS8ajz1uLHLccCUabOcRJD/7ylp8azv7akbDArOf1AY8f7Wx/T1X34U35KLMQiyaaqTlDUgx6/0Sj+njLF1m9JOyip/r0EHOL4x9Bajnf38FaknWL2/HJWrK49V75D29FR/OuFcPaPGIsd24CAw8Ox0qfBWB5FUXyInuwcCKiIiIqN84jjzL+BFdlQY4KL4Re+qakfthmLvIebk8FO9FXoUf3ZGEgWVrdZ+nNzF6lmxF8hKbhGvP34saVec3ONGYhDuX3Ywh7r5I7Zv5g5/izlnHcULvQ+2nYiKuvecq1AUbiFQ1YMiCZWI/Yaj/p97PPz/DqO8vw4+S4+19qsQ5J0W/qY+1FvXx12LZgqmefkg+GnHs+nX2kfJSs1HY1uAVRfZRA+VogmsXjLL3WQuS977kKHqLzrf2p/KvZM/FWOTyjKxnUiMbPjDbPRCIUc/7GPZ5qWTYrVhr6wMVoJ7an2fUP5P9vBOw8AlPqp/s6zWjYSSuWOu7nQwCXWvbCyRDE+aSyYdERERE1Cfk5uaiLC4VThHTvFvdgk8ONwGHxMwxUeQ433eOgGue7GDVghfuOdpmi9Vz/2m8/cqf3VUtKNrfjINhTZCZbycGDERt5EBjpRDT1IChzQ3qr/DjXJFIHj8Ak0cGGJihLSMH4vax4TAGbhfBYF0rooeE4+SxU+qhfNo5g3DxIBe+qg/Dt4foAR5aWvHhF+0/9HtT+zL3oYj9ypHi1PQA/Ot3IjGyvgkvWQK2S88djG8PsB/Pez/V+lxNEz7/DbbVzMS/3XUNppq3rKGl7UEVNNu+xXW6r9t9zVG4cVoE4sTq6mMtwHBjWmqss597+4qxd/olKmjJ+Hszfn61Z1/2a7Ie036tJnWfPN8eAc7Fsx/Jev62/Y4fhB8Pt97fAPX0ZzbO8m3nc3627y8XDlbI0Qx9t2vv84nd+RpSUzs10oYbAysiIiKiPsQdWJ0SgVWNCKyqvAKrDmgrsKoW+z9Q04raxgbVyb+sKQy7LO8TmhIJTIp0QY6mFhM1EGfFhiOuI5mApzEzsPruvEthHROixxx6Bf939V0ibGrLDfjxG/+FhKvNwOokJiYYa8hXnw6s5C8FIup6of7QExFR3yafoZ5rdeBEM7BXBFYHK0VAdUREPPViQQef2toKrLx9U9WIzyoaVMAlA6jpYwfiWyPNdqZeVJ6PIyV+mlBsxmPovzpgaVDpVr0eWDXl4/VZt8F4w1QgDjyzdQmcsxhYBaPPB1afRaVg+Ehg4CC9MARTxunxRYnOYLXvb2BgRUR0mpPPUDcduQFoFI9oR0VAJYOquo6kf3k897PgAyvp6EmgSEQKyYnAiGi9sLd5pY35Z035637+0gd7lFd6pX8yLa4V0WPbTvEjQ58PrGQzdtRA4KQoJ+S7w0Jw2VhL2zTRGYqBFRHR6U8FVgevEwGVCKYqxfNPbeeCKum5BzsWWBGdqfpFYHVC/D7Y2dyKPfIPDQM7Pwjhs8lssSLauzmfgRUR0WlOBVYb5hv9qVpECeFJ7bkVDKyIgtHnA6tvYlJRcRL4Z3ULtjWJwwwZoNd23DfpeoLoDLZN/FwxsCIiOr3JZ6hNNTeol+tGhtjF6bxE/mGaKBhdEVh163usTrVCtVg1yJEN60RgVRlCISIiIjpDfGdiFL41Lgrjx0chXkx3thBRz+nWFqs9salwNgDv1bRgq8wRPir/aiI7W7XXAdHXzkdC7KRFdBr4LI8tVkREpzv5DMXf9UQ9qyt+7rq9j5Xt5XaynAiHegtdB21f0zND03TP3SDqGl+/uo7/2RIRneYYWBH1vK74uevWVEAfMmhpFJFWJ0pDk6tDZXNJsyr+1rVdWru3HHgDbz/1P/hwe4D5bitOlPz+f/D2Fqefdb1XDq5NwYzB4ZiRlo2DalkhfivnRfltoW/9M70QERERUd/Us4GViqxkOqAcNrRjpb6xNejy8ic1eGdXtSpy2l+dQMV/sNWFJSJMvbxuyIAA891WwhAnPu2BA8L8rOu9Eh+p00LFecWrZcAYYwnGRPrWP9MLEREREfVNPRxYdd7JBlfA8s2hVvzjy0as335ClbeOATsiIlSR0+ZyWUfW9bcPs9TVd3MxB+dpDTDfjUU9lrv8r+utImJZgzi5RrXMCL/Vohbf+md6ISIiIqK+qccDq+cfGQnXc6Nw7OeD9RJpGL4Qy+TyL+7Ui7w0NouH8ABld1UT3trbgNcONqmyp2UgDocPUUVOm8tlHVnX3z7M0iQe5ru0VL6JL/60Btt12bVTPxyLAEetl++okKq86n1l2UewxetY2/+Ui0r3euMwwCGU51vq5L+J49Z9yOK9H686lW+IZW+UGF/b2o+fUrImCteepctP1mKfPiupVdXRM5KrCNlmXVEy850++2uvuI+3psizfP9aZKp93oR/7PdT1yzWbczi3tZ/ncP5NxnLf/Iosn+i64jrPGypE0ohIiIior6p51usYo0vcd8ajJ8bk8CdA3G+nhyrv3rzFwSZpfpUA5yuZhyKH4KK2GEIaxyEQXUDVZHTcplcJ+vIuv72YRZ/6VedLoe34JvN2xE9604sW7ZMlGsR9/k21IjrkWOGqDq6xWb/Z2W44A5ZR5TvT0TdR0+iVARXPvsMVPSxxn5f70OUayeV42DBFtTqOvKxvObTv2HgJbrOHUmIrduOio8Oefbz1Tp8YTvnO5E0YDv2WPZzlsxddL6BgwOvDVjHXyl5ciAeWK0u1/D6HUi/I1/PAM2qnqfFKnP+5fiznpaK/mMCVongyt++A5VzzPciDo3wLB8codMNwzFlsLHM59yk1Zfj+ic/8Gz30aO4/uI7UKRXK7LOT9fikK4zfpj+kXr9l/jz68YkZk/GDHMfIRYiIiIi6pt6PLD68Tb9cBgRgZ9ebUw+n2QOv96KvD/qSS+nGl0BS3OLagBCa3M46g4MxBXfCsNNc1yqyGm5TK6TdWRdf/vojnLki+1oik3CD+bG408760W5ANeJoEkRJ6Pq6Raa2FkLcGG4rCPKpJtFUCTO8+u3UOu1z4Dl1DE0iag1ZojehyjRC0XQc981OE/V0QHLpGtxQ6KuE34VZsvjHP5CH+cwnF+Xqzo/cp9zPKZdZwRgJ78xjmXEghNxreOCgHV8yweoelJtCEdOhQosXa5CZBmLlGZVzxNYITUbFaqeC4WZxqIPF7+IEp99By7W4R7cyy2tYrKV7FSjE4N101lWkXE8V5E+syff0cdzYsuff6UWueu4KpAtB4/ZdCe2fWzsW8Tmbu56D87BdvPYIRYiIiIi6pt6vsXqxQZU68lJV8h0wGFI0VmBzYdP4sfGpI968VDpr7zxVR0K64DKgUMQURuF65OApEFNOL+pURU5LZfJdbKOrCu38bcvWfy1EnSuHMaIEyJgmjwNB3Y36WWNyB0cbzTaiQdutUw9+cdi0uR4vHZIL9tXj4FTRAB2/BhGuPfXTrngOyLUqcHneU/Buf2wWvb2V6fw/BcN2KbryMfy2LhRyN2ntznUgCp5/LAwTFR1qjDsuFHnJfc5N+G18GmYJE76aNXnapnKXpx0PgZ+ZY7W6KnT1Gwc26dsfRdGXJWF+6+Px/Ml4txKZiM1x6GWSmaLlSlr8S3Yq+qdwoj0bBg1P0XMfq99t1HMTEt58e7llmjLJSo0NI3DlGnGfEZymLgdYVh4/GEdPGUgTW6z/13s3WCvExY2Fum5xrLy40ZLmhxqRRFBYeq3jXN/3n2fQi9EREQh+WCV+P9rlT37wkvRSvF/3E05cOr5znEi56YwpKzt4F725yBlpZ+zk8sDnbe8pjbOV16P73kUYVVYCnL261miLtDzgRVOIO+UMTUgfjB+fudAxBmzKHtbrwjS5wfFA211C2rEg3JjeATCmsMxOgaICXdhSGurKnJaLpPrZB1ZV24jt+1eR3CyVnxpbkGJscAwbDTE6fior3M/kivvNcp/wxD027v2T8X3ZUqeCG5ay9biyKbfqFJbrtebxD0JLAwR4t+Y4SONWVNVC+rl1/ABalYRAcl7elLRdcLFPfZrtNkq6ULFHvNaG3EsYaae9ubAmNgG9717b/BEXKinB43QE12mGec+aG8923BNuBE8/cuLeE0uGBGOtt5f/+perxstgrJd/GVNRER9zZzl4r+o5UjWs90nAWl/cSHv1gQ9HwwRjC1Jh6eTgMlYnlTk57xlwJWcoWd8OdemYO4KPWOTjOVFSUhfEmoASeTRC4EV8ONi/Zf3iAj8l5kG2NKC375hTJ4eEhCv+5PZ7D7kbrFrS/PRYGpZNWJdyQhccI/uP6WDrKaSP6JOdurqgOrKCj1lFzvCHAjdn8Ooaes44xJ1i5Pd+7u36Slv+dhVqielHaX4RE92h/e+no1FqoVKFp3iJ/39Luz6TE8rDmSXm/UsJWOuXk9ERNS9jh+vwT/+8VesX5+HtWvX4m9/+xtOnTqF1jb/eNp/OdcuQjqycfccvUCTQVPY2f4CMcloMRub5n+tMudusdd0vPCBnicKUa8EVvhjAw7pyTFmGuCRU/AeO6A9U8cBZ8dFIFZcRVRrC1wDWnG4FqhtDUNdeLgqclouk+tkHVlXbiO37V4jERMH1JR97kkPk1qP4Lie9KhBzVE9qSXIKCU23t2aF5xmbPpCp5+pIOtaTEQt4oL+PTsGcSIYO15zRM9rNZ/jgDgdW0vWvi/RoCeVmkrUyZTG80brBV5GTNItTr/AC381P/0PseuewL/wfv38K2qgD2n333+IV+VEqgPzAo1w0hYRmLn39fJt0Fl92od4ffoADJcpgNny3sXjirWe4OrAKXG+Y6/EQjWfj/TfvK3v8dtYqFICxXbrVBMjERFRtzpypBK7dn2EyMjXRSD1MRobS+B0foxNmzahoqJCzLfz/5GfVECV+qf/P5Mpdda/awaitvGXsufmlQpoHld99RxvlTuokal5OsV+xVyjrlruxJb1+XAsnA9r25cMqmTQJPszm/2wPeSx5b6yUOjVn9suAfMXOpCxhq1W1DV6J7ASocXjh/Wk1tE0QNOlidG4aJALIxvq0BLTiI3FwNb6SOwYEKWKnJbL5DpZR9aV23S/ZoyZm4TY2k/R8EWlXrYDtUXWAcY9nEWWlqXyfHxVDky8+CrPQA7tEdsc2WRtnWrGxnWF2CtCq2/r/kPtG4mkiyeKff0dx9znLAKm7Z/iRGwSZn/LGiLuw4mPduhpWWcbjk9KxvRB9pRGt6o5uEX3p3pjWSLumR4typX4rVoSQMFdWKrqReOxx41FjhuuREOVMR2MGd/Tv07zfuizL49L8Wt9bhtuk3WicNYAs/+UAzdedpY4/1H43mK9r8evdJ+/CtBSs/Hrf1VriIiIutX+/eXYseMdJCV9g29964T42oTRo/fiD3/4A77++mvU1dV1qOVKBkhzV8gAxMjAqFiYh3S/qXN2yb8Q9X/R0YTCDMxdk2gbmCoj2QygkrHczBjJLBTrddrf/i3Iy3Ug5VJ7SmHCrXlqH8u9WrEMRhpiMCmPCZemwJGbhy1M36cu0EuBFbD67RZPS04XpQGGD2jFkLMa8PY3LuR+GKaKnJbL5Lqe9l7kVfjRHUkY6O7z9CZGzxLBll7vEYuk70/BgH8a/aKOlBxH0h3L8P1Jnj5G7UpOw7LvD0e9uQ9Rasog9nMzhgf9y6IZmybdrIZhH+Y+57Woj78Wy+65Ckes+xGBVlL0m/Y6C6ZiU8CgpxHHrl+HCstgFTIgKbTOe8kqsv+VSY4muHbBqODvifDe1Iftx5SpfEXmQBgmP+emyP9o1uF7w+R3qrg35z/sGS3QJEcuXHsLjvEXMhER9YCGhiYcORKOgwcvwl//GobS0q8RF/e5SgWsrq5GTU0N6utVz+j27c/BEyKIyrL0XUq49VlPOnyXE/8Hr0lztzwl3yX/P87AljZS8Zzv5SEfSUgcrxd0tfGJYu/5KOX/49QFei2wwhun8O5JY7L6m46nAVoNjRyI0a4BGFVVhzHVx4HIejQMaVBFTstlcp2sI+v2mKoGvOQSwZXq82SUHyQb8z84T9eJ/56YvxcXTLgK97jriXnXKazryA/5/no8P0EERe59mPup14NMjMbse5bhR5fZU/UmOkS9e74H83VPaj9e57xs4QVqdEF7QOPCWLmttc7XbacflOypx14RwLj7JYmAZIQ5//KtiFe15uDnev2ib1v7Pbmw9vp4vOQe+CJI4npsxxSB0hXfvgVr9fRCnVboc26qPIwRJfWeYFHem2+bowXqIq5hr+XexKd6Xw8REVHXaWpqFkFUPVpbIzBv3jCcf/5A1NXVYseOHThx4kTH+lntLxUhRRbm21p9EpAYdKZLR3U8QCrdlQ+kJiJRz3c9sW8RSBaXMhmQQhcmHgK7ZQzn3NxclMWlwimetd+tbsEnh5uAQ2LmmCjuMbCD99x/uh/9fVSeACpqW3Ciyej183F9mBr9T5J9qmT6nySDqrExERgVeFcUhAmf/wbbambiu/MuDSoPu8sdegX/d/VdKNaz/t2AH7+xFhe3Nd5GPxS78zWkpnbbnxKJiKgPkM9QgX7X79mzB1u3vg+n85/47neH49ixPSguPojy8gtw/fXX4zvf+Q7GjBmD6OgA3R5kH6dkoNC1HImqn1KSmramzKn+S+tTUPEXT+tSxxn9nPIWVhgjA1qO6z6WHNHvbDnan5nSp/tGTSt0pxmqVMWS7DbPpe06su/WXBTn6PPw4XtMOjO19XMXrO5vsZIvY+3mLDwZKE0fF4G5E6NVSYpyYUp9sypy2lwu6/S7oEr1nfKk9/kv+faBJE53IyIxQU8GFoEZXT4sOxERUe86++yzcd55M/G3vx1AVdUpEVANQkXF2bjssssQGxuLyMhIREQEePWJl4TEJD1lp1qJzjCOKd3XJkZnjm4NrN442oKi4y04KApqm4GT4mv3NJDZyMEppo8ZpkrPDFTRjWTfKWtant+Shu/p6j3BJ32wp429Fa+YqXgBiyfNj4iI6HQhA6dBgwapflQtLa0ioJqI731vFPLy8nD8+HG1buDAILs9jJevQvHu4+REaUc6M3ezxCkOILe0GzNkxL5zgaTEzrfNEZm6N7A6JgKrI804eLgRqGoCTojgSnaRka1YHS0dJIdT7/4h1XuA7NejhvZuq5j9qHrGe1+LY/r0uepBsu+a3/tgLZa+UURERKcR2Y9KBlbya0HB51i79hv88Ic/REJCApqbm4MfvGJ8GpbaRuaTaYCL9Ki4fYMatQ/F3Te4xP5SsXdH9w2OQWeU7k0FbGg1AqpDohwVEZXMV+tsISIiIiK0tLSoEQCbm5tw3nmjMXVqPLZv364GrwgPD8eAAQN0zfbJYdMLMzMwV79XSvatyvZ5L5Sv9t9j1RkJSFuSpd9jlYIcGUyNn4+U1Hzkvdc9g0uoUQdTUzCfgRV1gW4dvOKmDfONgSpaRAnxKM+t4IgTRBy8gojo9NdeJ/p9+/bhsccew7hxR5GQMAitrTHYvXsw/vVf/xXnn38+4uPjg+5n1R90zWAa/hgDV5QuCfQ+LDqTdMXgFd0aWG2quQExcUBklF4YgvMSO5EPSHSaYWBFRHT6a+8BT7ZYyRcBL1iwQAVZ11xzDW677TY1eMWIESPU14CjAvZL3RQAyZEK5QuLuzxgo/6ozwdWcrj1wUOA5kHAqRD/cDIq/JSeIjpzMbAiIjr9dcUD3mlHDc1eiqVeQ8N3nhyG/QkkluchjWmAJPT5wCr1kkv0HBF1hdz33+d/tkREpzkGVkQ9ryt+7rr/PVZERERERESnOQZWREREREREIWJgRUREREREFCIGVkRERERERCHi4BVE/QgHryAiOv3xGYqo53XFMxZbrIiIiIiIiELUbwOroifHIWzcj5FToRdYVaxHyrhxWLVVz9tsxSqxLuC27vVPoUgv8XUYOfeKOveuh1MvMY8ZFrC0tb++zrjelA2H9Xz3kZ+r/+MY59D2Z6rLk/4q6c/MrGP97KStT/kuIyIiIiIKUv9tsRoi/9mE9JV+Hoajhxpf9RebrZ8gIzULWali23x/D+Bqx3Ckfo25AR60nRtWIP1VMTHQcgB9zKwiF2R2pW/J6qIX2vWGaHGt4svQbn6Luwhu5pZm49m7E/UCj6InZxj33OczlUHVdSgWUbJxnwuR9fh1XsGZDKrE9t8t1HUqkD1wEcZaA7D5WSj87iIs6oHgkYiIiIhOP70SWDU1N6OxqQktLS16SQg2dORhWDxg/+ERYOrluHuBA1j1SeBWpKlJcLz6Brb4tGptxQv/fhGyMvWst3qxQYW/UqkrkH8iQLru18j62Y1IOFKnl0lGa9Tcx/WsF+eG55GBLCxNEUGfus8XYnlRFvL/Pc/z2W7NE0GZA9m3X6jrRCNtdTYcjz/vabWsqUTy7dmAdTsiIiIioiD1aovVV3v34s9//autfPbNNzh56lRwQVdqNrJFgGN7iG5LxSfIyweyrkpCQrIDDjyCLX5Ty4RzrkBK6gbkfeoVtMkWr8wrML9Vz3cR54Yft5mKplIf/axXy60tLzKlzUx3U8We8qiO8+R6T1qcZVsjvdJTfNPu9radTid478O7TsDjy/sqAqT5M44Y84rRGpUhPueKchEI6aVWpYcKgMzLkewOxmqA6ZeLPa10f7bOqs/F94oD80eIdYqoG3ep+HwL7J/vCLlsJZ5gqxURERERdVCvBVYyqDpcV4fzL7zQVirFsi9LS1Hf0IDW1naiF1cz5j9UqB6i5/rtV2Pn/PQ15MuH95niATv+MvEQDWR8FGA711mYv8CB/E2f2AKDoo8eQdb8JD3XdRLufhUuEXQk6HlvyTdkAT4taFux5XERKN4wX8+KoOq6r5Fd7klBLMzchPRZlv5dQwcCjy9C3i06de6/5bZG/yOZhleht3OJQKb4OntwlX/71Sh90LPe8aq9tVAGVbZ9yLQ8UceWcuf3+MZ9VQGSGfso87Fc1nn5RiScaNbLrA6jdAfgSDxLz2s1TepLcZVxbqVl64GpZyPB2hBWVy8+Y3FN+ywtiXWxxmf+pv0zJyIiIiJqT68EVrvKy3Hk1CmEDZQddzzOPfdcNIeHY5/TiVP19SplsF2VF+LuHId4WL8uwMAGpsPYsmmD5+FdP0RjpSUdzKbZaNXKe80SzIhAZqUOzALIuNLSWmMt7QV+Rw4Bh6ytNV5mylYYrxY0s5VHn0/RR78W1/dzpMWIE9YpiMnzRUCGr1Fqu8YsLL1Rp85Vim1lS55MlVstAhi9HWJuRJ4IapbrmE3JLMTyGZ71S2VroTsI0UGeTOUz91FxIebLlMnSKq9Axev46r76CZBk65OsE/C+6D5fIsD2K0KvDxPFFaAFNCxCT0h1SDh7JpB3AKV6CRERERFRMHolsNq6cyeGxcdj7Nix+PLLL93l5MmTan1zS4sRWDUZLQ9tq0FCytPIlq1P17Ux8p7sZ5Mngocfmq1N4iH6xiXiEd8rHcwq/mwkWYIZ1Z/Hp1XFLuDgFbplptNqklSQ4mlB0/3FLOeTvEIc5yERGNRZUvIuyTBW6hhDSZ2AREs/JqMlbyYS4ywBTJ2YlkGN5VodiQmeebleNiiGRRrzunVpuUrlM0fpG4K5K+Q6r28zr+OjogrF4kvSxHhjvjclTIQDn3oFokRERESBtdelo6vI5zvbAF1eXUDaGlnZXc/7PDkycpfp1T5W55xzDhwOh7uMHDlSLZcpgLKPVdCDWxwZirQnZB+cXwdMCSz6aKX4Nx/piUM831gDL4EMO7zT/dzqvmsEMypd7DC2vFnQfhpgoMErVMtMKGqM1iezBc3sL2Y9n80PijjHuL65j4sgUqYEFskWKy8iALKJDBPBzkQkWlPl/AnUMqTUoOiBMIQNkfdW94sSxymULVbevI8frb8NW9o7gR7QIs9tPUqPGbNERER9RbMe/CuojB7qWbKrg3W06O7gPXqyfNWPHPjL/KN+uRyEawZHRu5FvRpY7dixA7/73e/cpUIGIJ0iHsjjbsSzKiXweeQc0IvddKqZe0huS5GBhy3dz0oHM4+8jyIZyOS1nQbY7SzpgLb+YopswZKpgOYPTq6RElgf5CgbuaWhpb+JH+4nZCqg+cMt+0XJz7OLB/mwG4PEaSLw3b1Xz9slTRqjviZOFt8Xn+/1Gzw7Jk/SU1YOJE7Qk0RERH1MzYkTePW997DhnXfcRc5XVFaioaEBLe31Uad+yHf05KL8RchPzcbd08XzlnzmijGehW19xTkyco/q9RarhQsXuovZYtUpdUd0SmAB0r93hwg6LFRfJAdS5uh+PdaiRpDbEOCdVsLoCWLLR/DEShHItJMG2O3c6YB5eMHaX0ypRKlqwTJ/cA6peLNoi8rFa1PCJNnqFWL627EqI9Azf7hVvygR0P7KWN2mcZMgz6C4rKN/KalD4jkiaJKBr16ibH3H6Hs2y/jFkzBxJrCuwB48V7yLvHXie2KeV/rhgTIjLdKIyYiIiPqUymPH8PX+/RgYF4fBw4e7y8DYWHwllh+sqlJdKQIOAKZSx55CkVcKmU8/ddkaYlnvU0et/zFyttrrqdYS27b20YkV730HMwBZe6l26nr8HMu8Xj1rzFuO7b2NXC+Ok2N2qbAcU52DZVt/aXeltjqBzsezj6CP72f05ORf6T9km8+C4lm49CvxMOjupiHOmSMj96heDayOiV8OO3fudBezj1WnuVMCrXRfJPlNFW88aNvoYCXgO63GyGHXRTCzYUO3jAbYMWY64Epk5HmlAWIyEmU/szV/tPyV4inMlRmQMrXNpxXPYtadIiBd7/WyZaOflP9cXT8mJIr7noEnXvTUL3ryOpVqiXVlbbeGmSmXZR1/11fCTbKf3COWFFD5F51H4Mi5wxN0qusTwbP7+sT3xMofi0B5CdK8viec5Z8GlxZJRETUw2rr6rD38GEcrKnB1KlTMWPGDFVmz56NK+fPx+6KCuwVRY6sHLA7xdAh4p9fY+4fLnCP4ivT9m391GXgM2sRkiz9xityxP/y11mCgGiZ9rYJ6ddVYallP/n/PgNhs6zLvEYn1vuWOzL2XYHs0uvaDpqE9kZPxvwfiOeBTT795o2BvX6AZDkjg5Z2R08W9+fVRUgfojOA9DFl36ax/56MQr2dHPk4yTvtbt0dmHvoYb1eXFeq2Lf12SqU4/sbPblSfBjWAb7EvX1CVMv62S3u+8SRkXtWrwZW3r7++mu0il8GI2NjER4ejrAwOZxbR8go3Bitzk33RXIsuMz+TeWmg5VA77QyRw+UfyUIIg0w4KiAorQ1amHQnR5VOqDkfT7xSHu5EFn5izDWPOZ1Q1Co3/9UXN5GgFQTI7YVP9wzLduOuw7F4pdenpnH254xNyNPvZhX/ELV+5grfinIX8Ttt4ZZUi71kqAdmYnlclj3x8UvZX3eGZmFyEuJ0RUEdX3iF9wA8/pmIH1ANir0QB8eh7HltfXie+WKwL+4iYiIesk/P/sMJ8TD9ty5c/HKK6/gpZdeUuWNN97QNYDGxkY1AJjsixWYA9lP3uwexTf5h0Y/dff7Hz99w55iJkrCHPn+z00+fZAdOT9Csrkf9TwlnlCKHvZa5hmd2Exfe9b9Yn+dmiaCiRfaarhqb/Rkn0G+JKMriPmH6OBHTxb35w6dAWRm4KjuDg+6r0uOfCwH7bI/J2WhMEM8W6j14roWi31v8LwqJ6Tj+x092aQHDRMBq/rcrO8E5cjIPapXAquRcXFoOHVKReLnnXeeu+wvK0NUczMmjBmDyMhIRERYP3C75OUiin/FE5G71R1B8kPGXwGWzxbzU36ohg3PuzHWWO/PzGVGfTVw38XGD8rNZi6YHD0wV6xfZvsrgc/xx92ijqP+uhCg2IYu99LuX2JM4heHereT1/moCOGQ8UPuOeZDSNbDpuelGT/4CTev83Pf5Lbih/th67ZiG/lLT+XxjkHaK9Z7YrDdAzlK4HTjPrrL8guRkCLv3TqkTVGbBDi+oALGNl7YrO+v+kxtxE3Qv9zcx31I/DKyjjqork/8ghPX4K7zyo1I8B5QRPejW9rW9woREVEvkX2n5P9hsuuE7EJx4403qnLZZZfpGkYdOchF2wOAeY0EXK8Hw9BjLyTcludOMXOnv51zm9HNwuvRLGm85Q+ZqvuEA4nxlpaQJp2SqEYnFgHCKhEgLLjU3U9I/R+tUtM875/sHK9BvgQ1mrPlD9FBj54s7487dU7QXUps16WeP8SBrM8bctRj97OFWN4or11ENnrfnT5+u6Mn6/d+ilKxIBdjh1hawDqCIyOHrFcCq3nTp6Nq/35kZ2fbyqjoaIwTvyyiRFA1eNAgFVwF5N38aSXXyW92+T0pH/i9v/G91YgfFLO+vx8U+VeSCq80Ne/jm8dpq1h+Rny095cYN31+3uejmOvMIup4X39bxzHvm1msv/RE4OVzD73vgXkfzSJ/uah7J4q5aaDjy4CxKAsZfwjQamdeh9976HXdfkdg1Ndg1vFzDkX5PwZkCmFb3ytERES9TLZKHThwAPvFs5QslZWWZwLzD4iiBCbWtfVf3ee/RUrEQPXgP/bfNxkDU+kMGB/WEX3VyLqiBIzpZBoikJ8+wQgqzBI7Aem5YoX5/snOsr3z0xjN2ZY+F+zoyd73Z6iMJoPof93mPRc6e/x2R0/2PAcl3LhU3INfd66vFEdGDlmvBFbDhgzB9ZdfjofvustWLr/oIpz/rW9h4vjxiIuJUQEWnSnEL4Xpy1B4YS8N9yn7o30lUxMsf3kjIiLqg+TgFNbAqqqqSq/pGma6ntkHa7lMCTzRdUO8+x2lWRTvzJgOs6YDqiwUTxpgyKMnoxilu/Rkp4R6/CAdaTS+DjWCVI6M3LP6VB8rOsPJ4T4fFr9Yg+3X1ZXmZxnpgWytIiKiPi4uLi5gKmDoDqP0K52uZ2Z51ADOwvX2EZc7ZZIaaCv/q889GSSqvIZVYWFY9fdQ/w/2pAO+kO/9WprOj56MsyaJcCPUlpwQju939GQRqMmX/nqPqFix10gb1K+c4cjIPYuBFfUtMr2wN4IbmcYYVComERFR7zp69ChycnL8Dl4RukTjHZHpz9lG8lt09wY1aX+476h4Y/TmR662jaanRhGWgy600Rc9aDodMGOV92tpQhg9eczNamC0jO9Z+y4FCGwCCuH4fkdPTkTagyKIfPw6y+BoctTju4wBLPQrZzgycs9iYEVERETUjwwePBjTp093D7ceGxuLLVu2ICEmBqPi4oyRlUXpnDokPyyHCl+JuWYfqFlvIKW8UAQs3g/3HSWe2ONuRF65fBmtZRTh0mxUWN/H5EfQoyfrdEDJ/lqaEEZPrjMGRqvI+dpzT8bNQPp3C+H672CjwRCOb7bE2UZPFvdyxjLVRyvjOss5zRTnZL2XHBm5R4W5ZKJnN8jNzUXqJZfoOSLqCrnvv4/U1FQ9R0REp6NAz1AflJSgrrUVYyfYO8HUVldj1xdf4DyxfIQIroYOGYIh0dGq+IgdZYxAZx0Ea0g8EBMFnKyQz/ByATAmxvLn91ZxkHpRR2zYfNIYJMpnG0EtGyDqWgatUscTO7IuM7c1tTa2nzUSPwYY0BxcdsmosaKu+Go9NyUWGGu9J2J/teLa5Lk01hoZM/7uj0meQ5QlYDXvheTv/HyuPYTjx+7GqiGXAq8exPJZepmk6suL1azn5Ob1efq73xWbkDLLiaUN/3HGDuLVFc9YDKyI+hEGVkREp79Az1B1J0+ieOdOvLd9u15ikK1Uc7/zHdVSNWzoUMSIMmjQIA4CdloRQdneJxH2+HBUPLOwy1uVip4dhycuKEfeFYFfdXS66/OB1UUXXaTniKgrfPzxxwysiIhOc/zjNPkVOwpFT0TiiVGfIm/BaL2wC2x9CmEvTkdF9g/O6EG8uiKwsrRnEhERERFRn9RdoydzZOQuw8CKiIiIiKg/6I7RkzkycpdhYEVERERERBQiBlZEREREREQhYmBFREREREQUIo4KSNSPcFRAIqLTnxoVkL/riXpUV/zcscWKiIiIiIgoRP02sCp+OhGJiYHLfRvNN1ZXomCRXHYfCpx6kR/G/p5BsZ632faMsd9FBWJv/hTjGbH+mW16VlD7C1i/f6rceF+PXJM6ztN+Pwl1Xz2frZX5OesS4DzVvs06Pt8T8nNs+/uEiIiIiMiffhtYxQ0T/6Rmo8Llgsxm9C6v/2SyURHDEBctvqQOxlvJgQOnlDVyIgZxaoFdcfFqODKz4Ni0GAWW4MkjTmwptrZsrM4vOk4c/fQxLG5w91+TswCZ989D4WPX6AUeMiiSn9NgdXOtZFA1G4svLtSffwWyoxdjtldwJrefLfetv0cqcgZjse174ho8WjQPix87vQJiIiIiIup+vRJYNTc3o6mpCS0tLXpJJ7maUF1WhjI/ZZ+zVlfSpibhu1iN7T6BkXgo/9NuZGU69LwX8aD/YhYw88rb4UgFVhX7b0mhriA+i8cWIzLnDkw7UKWXSUZr1Oz7N+t5L9sKsHiTA9m3T9OffxQcq7PhWPOipfWpGAVie4fct/4eiVr4DLJTV+NFdwtYFQ5MvQPZkYECaCIiIiIi/3q1xWr//v34xz/+YSu7d+/GqVOnQg+6vLVejsszgUzvwMi5DW9F3IjLEv2P4VFZ8hY2IguXzxiCSxaI4Ctru/9Wr64ggrj72kpFUymJftar5ZaWF7UfS1qcKNY0RVV/UQEKzHRKS9qcPVXOf9rd3jbT6QQzdTJQnUDHl59FgQMps4eIEMekW6M2ZaHQVSg+CV+V1TuAVAfmxZhb1cI5dJ4IhDfirRJ9/s5q7IADDsu+a52DME98phvf2ea+flQNwbyFDqz6E1utiIiIiCh4vRZYlZeXqwBq5syZttLQ0IB9+/ahsbERra2tunZXaMLMK8VjuVdgVFmyCeELL8E4v4eqxLbNBSIauwwzq2ox7GLxYI5MP61eXeTce/G663Xce66e93b1DSKw2OwJFjSZqojMG6CS52RQlbwY84o8aZEVOQ6sdliCm7gYYNNiLB6mU+devRcycVL2X7KmyrlEIDPv/tn24Grdnfj+kQy9vgLZqZvtqXMyaHLsRna5uQ8XCjNFHWvKXYDjy8+iQARIlwy3tjZOxr2vyv08gGllIuDWS62Olm0Apo7HMOtmtafQLGLlgv1H9Xw5NmAmxtv2XYtTslJ+BXQtQX/O69/CtkABLhERERGRl14JrA4cOKACp8GDB+slhnPPPRcRERE4fPiwCrpkymCbxEP++baWEbP4b/WpmnGZCEysgZEMnMKRcvEwEXb54dyGTfkiFrtypmrlqB1+iUoHzOyu1oxaJ/aV7YN3FqNb1UxclimChc2WFhYRrmyX8aI+R9nCtjk1G3dM9aRFRs2WAeFmVNv260D2nTp1bp9ThBNiP2vEfoqWuVPlysqmYZkIfDz91aQsFGZcqNdHwbFYHLzAE4QYQd5SOKLNfZRhmgxosRvVts/E+/g6iPUOkGTr0z65nwOWViy7yDDxT2uLqOlHWKTx1aiEFv+VoGsptcPHixCsABWBPgciIqIzjhM5N4UhZW1f+KtjEVaFhWHVB3o2SM61KX63kcvDVhbpObuilW1ds3FPfPb5wSqE3ZQj1tKZplcCq2+++QajRo3C2LFj8eWXX7rLyZMn1XoZUMmWq3YDq4CDVwRo9akahwkyMDLTAbcV4N7wFK8WEo/ijfeiQBzj9hn6kb52GFJkINFrrRlVRqtb/ib38Ss3vihCxSxcps9x8g/z4XrZgSFi1kzri59yG0R86I4xDDNxljt1Tti2XezHgQnDrQFMFQ6IwMfWXy11Aka7+z+JoKdBtiGFY+BQY8k1K8T9f/BCFRyaIzcOuzRDrAlDhK5j8Do+jqJCnKTjnPH+A6SeVDseE8X3yacHuiV8JiIi6ocSkPYXF/JuTdDzvSkZy8Xz3vI5ejYY+3OwKE0+DXlRy5NQ+ItkvcBDBlxzV+gZP4pWjkV6rp6xmrMchdPSsahPBKHUk3q1j9U555wDh8PhLiNHjlTLZXAk+1i1288q4OAVgVp9huMy2U/qy2rV4lNcvAqOhZd4tZCYirH9UfElNx0ThpktYfEYPE8GCQXY5JWO11OMVjfz+JXY9s5GnaporK/99GlcGzEY8eJ85WAPWTIlsDxbhEzevFpv4iLEPzMxYZQxG5Cr1X/rnlb12lKERQ1T9ytljcNICSySLVbevFuPIkXoJXff1t57ShNaXcCGMk+CIBEREZ1unMhZkg7k3C1CNSujJWqsv0BMMVrM2gq6ku/KBtJeEDXpTNKrgdWOHTvwu9/9zl0qKir0mu6i+8/kbcQ2p0yhE9MXD/PfQqJbcKx9hcxS6JOO14Os6YBeqYpS8cbFKhXQbMl7QKYEVjfB/9Ac3rZi99d6slPkCIsyFdAc9jzXSAk81cUDkXiZOEWEjZ+X+f08HFMmGhPjEsWnuQ1l/v54lJoIXcvG8a0peoqIiOj0oNLebspBkfwqggOjrLIHADqVLWelXq/S2vynAspUOc9+fNPi1PHaWO8rmDQ/ex3/15SCnP3GenU9Z6er7J2MZLHOTPvbvwV5uQ6kXGpthZPXKVuiAg2aJY89FxnyWcvvH6618fORkpqBJ9hqdUbp9RarhQsXuovZYtWdzP4zmx57EZk+AyV4FBeL6EWONGfpK2QW1Wco/95eGpLbkw5YsFEUSxqgDGyqRWDkWDAPUfpcZdZeZdF6rNc1AlKBxwaU+78dQTqKanGgrCvNYc+NlsPiLb/U69syEYmpwPrde/V88IZPmAmoYFkvkJzvYv06ETgnDzfmR00Qn/sGbLS1NFbi3YL14n5dBl1L24uydcDMCfalREREfcF+ETD87GfyD9RGds8XX7Sq+b17W9TAX/KPm23KTcfc9SnuP8IWZmZgrndwJeqkQ/+h9C9p8E0ANAKtuSWWbhki0CgWgYs14BmbBs8fqfX6tvtpdSLNT5LXtGupcRw1uFY+0pfofk5zlruzd1Qmj077c76Xh/zUFMwfr2Y1I+XR5Vru1YplMs7P/z2xSsD8hQ7kr99inAOdEXo1sDp27Bh27tzpLmYfq25VO0sNu15QsFE8UAdIA3Qa764KtN5Ix+u9d1qZ6YCrHjVHLNQrMBmTp4uYK/05vK2XyGvJ/ImoJ2wra6ONbVQqloj78qt/sb4w13h/VKLXi3YDm4JzRHCUseYFT+vRtmeQov7csx5lB9WSAHSa5o4Dflue2lKbdIf4BVqAe92jE8r3YYnAN3MJUszAWXzud+Q4UPCTTPfAJpUbM3FvfhaWOLxaLZ0H8Kn49TtxjL9vDiIiot5VKf6z+93vgD17mlSf9NLSJjV/4ECjGhys/VfWOJC9xhMYJP9Ctsx4t66IOnf5Dy0U3dpj3Q/GpyHPHRQV4YW0fDhynkWaGbiI9c+K/4vzuyVFLsvST0oER0vEw0duHraYrVY+nNiyPh+YlthOgNR5CYlJ4hxKUarn6fTXq4GVt6+//lqNBjhs2DB3U26bAo4KKIrl3Ux2usVH/MIIlAZovLuqjTRBnY7X7jutApyfv3dDKXKo9LbeY2Uyjy9Y0wBlquOsh+RfaVYhxTxe8lu4pdxoym6zz1CtExc+KIdm3+3ZNnE2Fl9cCNdjaiD3IAxH6sviWOsXY7a5D0cMCvVfidoeDMKapqkXBatqCBwvi+uONI8rzjsyGxV6EA1DFYYszBXXF4nFyca5zb4/EtnlD+BCrw55lSUbsSHVgcva629GRETUww4cALZuhQiegG3bWrFlS4v4Kvumu/DRRy0oK2tEU1OTarkJyKeVJhnzxXNF/i5rCJCERFsdO9Xa01adD7aIUM07zU4EG5emiKXFKA0Y8HRSqvi/XU8GRwQ8ueJpcErHtuqQ8TIbqBuulfqsXgmsYmNjVeuU/KE/77zz3KW0tFT9pUWOGBgZGYnw8MCnN3u5bKZto+h3IwGjcfMrYn75bDUnVc14QNTJ9bRmCKNvWieWPQRZS42s57XeTgRnIghxuTKMd0eJrR4Sx3zoIjWjtHV+9uHLLdp7j5WbeXwXHnCnARqqDkSJIMN6vHykRE/DA3I6Y55R6aKHxHLjWq2qDpQhamGeZVtRHpqGMj0KoLpHr9ws7qiF2tc63DxOzsih0fWx3OUhTIt2IFdM592qrzvA8Y3h7NsaGMS4z+tusp2BII8rrlt+zuZxX3Egyj16oaHWuU9cn/yczXrr4Ij2HsbdGPY9a3FKgEFNiIiIes/mzcB//ZdLPC8BTzwxCHfcEY3/+Z8oMR+GX/0qGn/7W7gKrLr2XaABtBvM5CP9bLPPky66r9OZI5+B1RmkVwKr73znO+olwNnZ2bYSFRWFESNGqKBq0KBB6msgMgiw9nvyKerdSJJ+D5L1IbvqgKhjHzlQPnSb70oypgONLGgwjm8+lBvDktsPYTkXr2IbvtyqvfdYWZj794odBPO9T2aR+zPOz30P1PX7fy+Uce2W7S0HUOvc91XzuZf6WO4ijqOuy3LdgY4vh7N/IhvhPykI0BLoZ/h3N6/r9j5PzX59fu61GoI/G7dP9789ERFRb7r55hasXdsknpOARx+tFIHUfjz2WBUGDnThmWec+MEPalQqYLuvrLFxorRET3ZEu2lu/gcBc7nyPOmBpz1Hmy1/dHrplcBqyJAhmDdvHtLS0mxl1qxZmDJlCs466yzExMS0GVjR6UgER0MdeCZnB1KC7tfVlYrxjGMHslcb7wEjIiLqawYPBoYPB2RviZgYF0aNAuLiZGuQsXzwYE/rUEA+fY+MtLisq9voU+VF9R9qK81NpcH5aa2RI/R5D5TRKxLVoFn29Mcutr+07XRJOu30qT5WRLLVbpBMRwy6X1dXugaPuvLgGMrWKiIi6pveey8cTzwxQKUCvvRSDFasGIE//nEompqA3/42Dh9/PFh1pWirO4VK0TNHzBOKVhrDh9/dkZH45txtH3lPMYZBV6P+6YEqMpItw57L9ckZcPi8N6o3GKP2oaS020btc5YWd6LvF/VnDKyoz1Hper45jj1AphoGl4pJRETUW2Q6nfm1tdVIr5Nkvypz3lzmXxayF+ZhrG7ZUkOmtzt8uDdjWPLCaenu/YSFzUVxTgXybjX2lHBrHipyYOlnZV/vXzDvseoEEegtzdTvsVLv5dIDabQ5cmAojFEHHQvnd9uog9T3hIkfvHZedtA5ubm5uOgiy2gORBSyjz/+GKmpqXqOiIhOR/IZKtDvetl/6pNPWjB/fhR++1snLr20Hv/8ZzTuuWeU2O4gZs4MQ3R0tCqy77o3491SSSgM+J6mM4nxMuC8he0Fe52wPwcpZ5diKe9zv9HWz12w2GJFRERE1E/Ilh8zzW/AgAEqeDL7pA8YEKmm5fK2UwHJkIC0NdlAN7xXq+gP6UCfSHmknsSfOiIiIqJ+QgZMF100AHV1wK23jsS4ceNw003DcfJkGP7lX0arV9YMHTpUBVcUBNUXrBhzV3ZhaPXBKpVe+WxXt4JRn9etqYBMWSLqWvy5IiI6/fF3PVHPYyogERERERFRH8DAioiIiIiIKEQMrIiIiIiIiELEwIqIiIiIiChEDKyIiIiIiIhCxFEBifoR/lwREZ3+5O/6iy66SM8RUU/4+OOPOSogERERERFRb+vfgdX+HKSEham3kLvLTTlw6tWmopVeddxlldebtp3IuclfPXtZ9YGu3q8Y15ay1vvudD15v/0fxzgHf/fPuTbFz722fD4frPL72RIRERER9QW9Elg1NTWhsbERLS0tekknyAfts9ORVOSCzGY0S+G0dIz1CZiE1GxUWOrJUiHftB2Wgpz9ug4SkPYXa51CZImljpwKyzIXls8xapMfbbxtvGjlWKTn6hkvpbvygcxC2312uZYjWa/HnOXqs13UA4EhEREREVFH9WqL1Z49e7BhwwZb2blzJ+rr69sNuoreyFAP4t5BTvIvZDCUgSeCeABPuDUPhZn5SF/ClpCuUYRVyRnIWpImQlQrsTwsDHNX6FkfTpSWiAB2SqKe9y/5rmwg7QXfoJmIiIiIqJf1WmC1f/9+OJ1ODB482FYqKipQWlqqWrRaW1t1bW/Gg7h/yVjuciHPT4uJP/Jh3ZGbjhe6IL1PpbO1la4mW9lsLWSaWu6V9mZLifPaRq4Xx8kxUxwtx/ROqfNNySu1pzv6O992jq+OsVIc39zPSn3mH2wRIW0W5tuCXRlUzUWGbDEsF/daL7UrRWmuAymXtvOZjZ+PlNTggmYiIiIiop7UK4FVdXU1du/erYKnGTNmuMuVV16pln311Vc4depUG61WCZi/UDyir5grHuz9pP11xPhEJIkvxaWhP6zLFjDXX7xbayzmzBdhRz7y3rMfy2h9m2+kvcmgJrkY2eWelDjVqna213WKYDAdOnVOH1P2bRqbloRCvZ1MZUxKG2sLrvLT5qJ0iV4vAx2xH1t6XbDHX5GOvIU6RfIXRsKe7TrcjEC3zfuiAjJ5DGsw5+9zNT73/PVbAgevRERERES9oFcCqzfffBPDhw9HbGwsXnrpJXc5dOiQWi/7YMnASgZZgcggpiJHtn9kYK77YbwzgzMkIrHHRq9OxvxMEdzYAoMibFkBZF1tDU6WIm28mlWSr5Y9vYpRamvpciD7LmsIo/dTZOmXpIMaW+udNX1yfBqWep1P8MfPwlJbq6Bx/PbS+fxxlharr1mW/nKFmfJz9Q2uEhJFGJxbilI9T0RERB2w7RkkJj4j/len7lOMZxIT8cw2Pdtt5HHuQ4H7obISBYvEc604tll8z8E4N2sdWe7bWKnXG4qf9q2TuKhAHMFQufE+JD7N7yJvvRJYNTc3qyDo3HPPxY033uguo0aNUuvlg7Ws014/K9VCpB7EK5Ctg6P8tLFi337S7foIFaTk5mGLPj/n2ids6XPJv7C0AJmpfski2PGRhERL8GO0+jjsy/xotx9TsMdPFT9gelLZX6p+SSclBmyXCsj8HK395QL2lRufKK7SO8gjIiKioFz9qPg/91Fco2epO8QhRvwbE2fMdZfip1OwO+cF3HuunJNB1WwsjrYM1laUhdUOr+DKWY3d8o/zlswkWV7/yWRdQapE9V7fwdtcr94Ls9bkn7yA7L0pPRA89i+9OnjFiRMnVF8rszQ0NKjl1g8xOJbR/FQ/nnyk/yHYBEHZv0dP9gRbOqATW9bL0fAs6XOW/k1zV+hvfPGDERyvYKszQjp+VxKBmwiW83f5a5vKZ2BFRERnHPkHZ5nVI//43GlVB1BWdgBVepb6qW3PIGVNFpYuHARnrZh3bsNbm8Rz22oHosrKxGcsytQHUJgJrP6Tp6UJteXYgJk4K1rX0WWf2onpKMrzgJlnRdnqlO1zwqxV6xwExxIRuFn3Tb0bWNXV1fkNrEKi09tQUhpcPxzV0hLEwAldxpIOuH8L8kRQZ6YBykArZ41MxTOHHc+zpeS1L9SWnFCP31Pab5kjIiI6XR0/fhxvvfUW/vGPf7iLnD98+LB6lmoz48eWCmimrHmlh6kUL/sy35YJ37Qzf6lhtpSyRQUokPOWlDJJpZVZ9hNMK4jab8BUNH1uPuuN5da0N5+UN9u5GfWf2ViA+3zOzTulzl96pb/7atfZ4xcXrxbPa5fhQjMgOvd25Lty4RjqCX5kED060QFExGGYXlR54FOx3eWYZY2jvDkP4FNk4fKktirVwjn9MmStX4wCtlq59WpgNXnyZL+pgO3SLwZu80W90xIDD5ZgUfSHdOSnpmB+Dz6om+mAL/whD/mWNECz9cwTaBlUv6f2qBS5UFtyQjt+ZwcBUSmHPqMT+j8XGQjnd0XLHBERUT9UWVmJvXv3Ytq0aZg5c6a7TJ06FeXl5Wp0ZdmqFXBk5TiVpAYjS81IWVvteBEX6tQw1X99TYp4iLcvW+3w7sszG4svtrx/UmYMie28g5aUvZ7UtMKLF2PxGrEi2vKgL4Kq2fcP9qSmif3sdvj2+fF2zWOi7mOBEhonY0G6vI7t9mBHt+rc9m9GQpv3+an3l25ajNnuAGgY4qLF/bn/Ldymz+/Rq8Vipwx0ZBqeJ1WuImc3UryCq1/O99xDlf0j7o81aOz08cVRtovdZV0509PyWOvEvrJ9RuuVWyXelJlR0yZhtJ7f9toGYMVlGGYJ5rzvdWXJRmxABi4b5qnjHQwrVTNxWSawqtg3YDxT9WpgJUf/sw5eIYdfD4pulcpI9tOXSgRdT8gUNtvADv7JYcNVutuaNkas6w46HTBjhVcaoE5/y1hjCTI+WKXf/9RO0OS+J9YBH5zGkOjmcOjtCuH4Zkuc39S9tplD3ntGJ5TnbQzRfrdt6HaxRg504d2/i4iI6Awgn5Nqa2sxbJgZlhhiYmLU6Mpy1OUjR46o94F2KF0w8wGk6tSwqNkOyKHBHDn/57VsM6rNh3Yz7ez2aZ40seh5cIhniM1Hjuo6BXhxjXzG8qSmTXtI9p+2KkbB/ZvFsZ6Bw0xNi3bgWRHIbb6/wB4Ueak6IOoeCJTQKO7RxfKcM7HdEshUlmxCQaoDlwyXFyKCExHkZS2xpM6VTVOBAvZW24OIzP9Cij4/ecjKkrewWTyjPLvQkyoXtVD2F7f3XbPew7Kpt6vxAFa7g5DOHx/btosrc2DCqHYSOrcV4F7xqJk1f5ZuxTqKCjEP+QocM5gTgezg+2fbgquj+wvEv+KzM4NCOZZBtAj4fIKrKoyTLWJfep3vGaxXA6v4+HjbcOtffvmlar4eP348wsPDVT+fQNQgC0VJXkN0i7IEeNZfCpt4cB9rrSeKMTR516W7tfseKzcjCJHsLTKyr5j4pWM9V7G6UPUbEz+C7bQGyXtSkVNsGSVxLNKnFboHo2hfiMeXLXErtviM5NcuERTmiWNADTyizxvih95niHajT5pj4fyeDYSJiIj6APlgLf+flC1Uu3btUs9Nsuzbt0/XMAYIk+mAHQmsHIkJ7paO2uHjMVN8nXmW7rsjl51qhuz1HhZpzLvTzmLEg71qvUlEYvwk3Cb7rOtKMvjYKPvyWFLTqg7owMEkAoRV4gnDMdtzLNnyMkgFcjtQ3f4DVUC1wy9RgV6mJZAp+EkBHAsuwTB1rGuQIYKGB6bL8zNT9obhMvnH5LAId4uaZL0/qtVnswg8pp6FQZbmoVrnPvH52PuuWe8hqurQJG9ihDmiRWePL86g+jPx70wRWBnzfsnPxbFK3IBCPDDDPKt5eFgGSi9bgjkRyD7jFcjOy5DBlPh8zaCwLAqO1eJZcJNv2t/wCeK7Ja9chGwk9UpgJQMnOZx6VVWV7eXA8i8t0dHRGDNmDKKiohAREaG3CGDOch1JW4qf9yWpIMy7nirWocn96djLhtt9j5WFeU7WkfAM+r1P1nOUgYf1PNR1+z93z0iJuriDKmOAD+9rUedhO+f2jx/wOlVLXAa2BErR1PvxvWZBr3Mf19/+VZ8072HeiYiIzixxcXG4/vrr4XCIAESUSy65RK+BSgGUf6Rub2RlK1drk54SalsgkwhbWyxP8t5qS/D0v0VgcLwIBpIXY7Pqm+0ZoVkaNlA+Yopzse2mCk3W04qTz3n5uG1KvCflTJT4KbeJpWGIGGpU65TaYbhkgQPI0umAZhB38TAd6FXh1Z+HIUqlu6VgtW7FkYM9eLPdHxHyyEtznDPeHTAG0uY97PTxxRlEyIYH73trIYMq83N5cJrRyqVU4YAMlCyDUKhA9iwZSnsCWdUaaEsrrIVz6Fkq4N5RbW+bqm2R3y2f4kAIQfDppFcCq1mzZuHo0aPYsGGDrcgWLBlURUZGYtCgQeor9SciKCsSoZU1lbALyf5wyLnbb0BJRER0ppDpfr///e/xu9/9TpXXX39dr+kh2wqwWKYCmqli4uG9rKzaaJHpMGvKmbWsw83jdJVOsacDFheLiMWdBiioVEURd5nv0NStOKeCjEfzv9mlpzopxOMH5BVUBU6X9DCCo3YCWR1wh0XY01ANszBZDflOvRJYydxg+ZeWhx9+2FYuv/xynH/++Zg4caL6a4xstaJ+Zs5yFE6z9pfqIrKvV0k2nmVrFRERneFiY2Nxww03YOHChapYW6x6QmX1DhWkzDNTxeTDu/NdrF+nKwij56WIoGYbymyPA8V45xE9KY0zBt765gu9H7OsX4qwsAewqa0GnyB40gGfUYM9eNIA5cpqbEQWLpuqj6lacbzOz6/RmDRNfNlxILR+RZ0+vjiDSXK4MO97K7QXVMn1ib6jLlaWiQWpKbhCBbIBRlR0lokjOpAyzxgGw2RsOxHjQ/ysThe9EljR6U2mFwabPhk0mf4YZJolERHR6UwOTiEHANu5c6cq1j5WPWHy5FlA7m147h29QD6MP3Yv5JAH+LxMBRy1w1OwJHMD7n7MM+CBfKGtynQzR6kblYqncxz41b9YRxwsxjOO1XDk3B/6S4zd6YCr1WAPnjRAYeI5YkkGnvi9Jzxyn9+6MuxVS/ypxazbs+HIuxuZ1tH01DD21utoR6ePL84g6XIRkm1AuS2YEfetvZaqc+9FhjjAaodl9EJx3rN/tAFZi1N00DkZ9y73HsFQ7vtubMhcghSzxU87WrYBmDoBw/X8mY6BFREREVE/JkcK/PTTT1U3CtlX3RgIKvAAYKGqTVqmhmBf5TD7Rc3GWzdVGP2DzIEMap248EEXCpMWY7buO5UyrNCo09piBDiyf8/CXLGvwVicbO7LGMY8d+EQ20AQ3tT7n/y8F8rOTAcUrGmAkgjqcouysPH+2fq4xvmp4ebb6TNUFeNArqsQF1u2TXTsRnb567g32JS4EI5vDnP+q/c811+58UWslhMr5iIsapjnvFTRgZT5mWSuRoq5TgSxMh3RGERDVYJz+gNqePjV7s83BatVwHahbRANGXDJz9Mz6iCFuWRiZzfIzc1FaqqlFyMRhYw/V0REpz/5u/6iiy7Scx6fffaZ6n/+ne98Ry8xyHdbffjhh5gwYYIaen3IkCEqwJLFx8izMGkocEKNYDcSZ4mZiPqj2Od+YjaWiQqeQQ9iEjBhxCC0WJbFJEzAiEGev8+3in2cjBiBoZFNet+GkWdNEsv0TNNu/P7WKXh9wS6svsQzQJm/fXnOxz+1X5xovw+RPvfw1noctQ7aIKl7YenP33QCR1uixbkA9Ufl4A0xSJgwAlGN/s7HuE+erVv1NnLazz2Esa9BLZZzDuH4I/dnY9iljcgrvUu9R9T7Htq18ZkITbbz1Pycm8+93vYHJK79Nvb9fi5avLfvhz7++OOQn7EYWBH1I/y5IiI6/QUKrE6ePIlvvvkGO3bs0EsMMpg699xz1WjKMqiSpdcHAZOpcY7V+Hl+Kf4/OZycWva8WPYl/rzrOcyLaDtwonaIwKfiySg8FvsRnrq+rXHXu0slCpbMxomlp3DfOK+AtZ9iYEV0huHPFRHR6S9QYNWviAf/Qa/egrFp8o20pgXILs+DI9o6lDd11sizKvC/Uf+NYUVP44Ye7oReufE/MLv6YTQuGevb2tVP9fnAqt//UiDqY7rih56IiPq20+UZyjc9zZouR6GTKYfRaOmFe6o+24iT7adi9iNd8YzFwSuIiIiIqMvVOvfZh1G3vXSWQidf+Ns791R9tqdRUNVVGFgRERERERGFiIEVERERERFRiBhYERERERERhYiBFRERERERUYg4KiBRP8JRAYmITn98tQZRz+uKnzu2WBEREREREYWonwdWlShYlIjExEQ8s00vCqgYz4h6sq5Z7ttYqdf54SzAfV712zyGn/p+96/rBdpX8dNi20UF4so0+ebyQPsyr//pYmNW122zWPfdn6hre0Z8it1MfT4BjiPPIcD9q9x4n+U+34cCp15h5fX52L8HjM+y/e9jIiIiIuqL+ndg5dyGtzZlISsTWP2nwAGD8dCbgpgiF2Tmo1EKMe/+2X4flFVwk/wWbiu31C/Pxm6HWG4GMRZq/8mLMS+Y/Q+Nw2DxJSbOmPUWN0z8Ex0H+UWJi1FfNt+f6edhfRjiouUXvbOrH7Uc34WKHIdYmIVCyzLXq/dislG7f1H3IQYBblsXEcHNY/JzfBTX6CVuMuByrLZ/Npr8/GffP899nytyBmNxsldwJoMqx25km99TRVlY7bAGYJNx7//J77EeCB6JiIiIqMv1amB1+HAFPvjgfbz11lvYvHkzKioq0NzcrNe2r3jjvShInYDbr8wC1r+Fbf5aCcQDceb9m5Elgp6HplpfUjcNy0Sw5Ni0GJnW1iDxAJyyxiEegPOREm2pH+1AnngYxpoUe6uCqD/7/sHqgXmZ9/5dFciOXozZfoKxjnsNix9rp7Wp6oDl+GWobpLd51pwyrKsbJ8TfDeff5UbM7E4Mht3TD0A6yvvzMB5s563K0aB+P5y5NyBafoeRy18Btmpq/Gi+/tKBGx/EkFZ5lI4zO+pqQ+gMHMzFm80vzdq4RzqwNJM63ZERERE1F/0WmBVVXUYx48XIyamEFFRpaqUlHyI0tJSNDQ06FptKcb2RwHHgsswZMZlyEIBNpX4PpAWb1yM11KzcbsIeuwviK7Cgeh5WFJUgYKfmG045gPwEvEA7PUm61on9k29DIUiQHv0ar3MXf/n6oHZZ/9lUXD8TAZjL/pPDQuaCPRyxH4KFqOg21LFjFTJgKlogVIY1XJry4uR0mZNebO38snjiPobzbQ4y7b6GO7t/KXdtZlOJ3jvw6dOoONXYts7r8GxcB6GWD5HozXKCMwLM/VCK2c1dojPxzF7iDsYq3UOwrwFDmx8Z5s+/6OoXg9kXXmh53tKBMHT5B8EHt0uzkgT32MXimUb7y/wLCMiIiKifqHXAqvy8jI0NpZg1qyDOOecJlxxRaMIrN7GZ599JgKu42htbdU1A9i2HZnygfbiYaitmonLxENvwWbzQdZUieqvZfBlf1h2qx2GC6dGYZ/7adfPA7CVOM40W4DWTn3ZCjFdBn0bUe13fbBcaJotWziAVd2WKnYNHnVZg0Yv5y7AbanA6mL70StL3sLm1Nuw4Fw1J4Kq2Vh8caEn9VC2Cq5JsfQRi0MMNmPx/TE6de513Cu3lQGTVzpl4cWLMdsWXP0SV/3pQlSY62UKqPV+yKDKax8yHdKechfg+M5t2JSvv5+Misrkn7yu9vOA+NxPteiFVrXl2ICZGD/culUtTjW7gPwK8R0iOA/gU/G9OmGU/Zuwqknu8DNUW4LuKvVHglXY3m0BNBERERF1h14LrOrrW3Ds2Ch8+eW3sX79YcTEfCAeYCtx4sQJFVjV19frmv4VF4un6lQHLlEPtFWYKf/6n3+vV4vOUZTnibCk+VSA9LdaVFVZ1qgHYKClyV8UJlWJ+npSare+UNUE+fj86QGftpeOOXUA034oghSsRkqXpBZ6ky1s3q1uFiIIvWSBQ0SRlhYWEfJs21wgAtdLMEzeRtXnzYHs26d5Ug+j58EhArLNR1SI4ebIuUunzhktg8XFsuWv0JZOOe0hEfjY+oSJff9vKqLM9fp+mEGIEeTJVD7PPqJmi2BJBFLega338StLNqHAJ0ASl+3cp/YT8L5Ehol/WtHitX9DGCLll6ERYsqF1ia10EsYIobqSalqHCaI+/VZdYjfL0RERMHan4OUsDCs+kDP96YPViEsbBWK9GywilamIGe/noETOTeFIWWt5S+Xvcy5NqVb7q/9uqm39Vpg1djYiIaGJsTHR+Ff/zUWgwa1orR0DyorK9tvrXIW4EURR2UtTjEe6IWqGbcjWzyQrrK1qESKx9YOUA/AHdCB+mER3kMedFxVjANPywEpvPt59YhaDLtYBimZntaUbQW419rKc+7tyHflwhEjohAzJS9+Em7LFevCVIjhNvMsT+qcTM/bLj5PR+JoWwBTdUAEPrY+YTNx1lDPfNWJJhGuABF6RIvJP8yH62WHap00BixJRPyU25Av1nkd3uv4IgTfXyAC9YkY7zdA6knDMWEqsKHMHogSERGdEeYsh8u1HMl6NigiGJu7Qk8rCUj7iwt5tybo+V4mAtdFafJppIv5XDf1tl4LrM466yw0N8dh+/YjGDUqCi+91Ixx42ZhwoQJCAtrO1yRLRMbxdeMeYMRr/vRJA6bgHT5AG9rUZmIxI6852vcJCTpyaB0oH7SpNF6KgjTJsFv7VonBi18WgWQthS4HlI7/BLV+pSpg9fi4lWWVkOhtgRP/1sEBseLz0MO9pApUwIr1Pl6a7U18cQhQvw7c8JwYzagQC1DhtpPn8a1Ecb3hNkvSqUi6vVW9uPrhidXK/w2KvWoWrTIvyvsOOCV1kpERGc6OcCX/MN0U1Pv/29FRL56LbCSAZTLNQJFRYfFL4hwfPJJnFg2UwVcAwYMQESEfNT2x0g/k2ljZj8ad1EP0ZYWFf3X//UF7wZ8SLW9N6p2PCaKIOCXWwKFLHpgBjMVr936wrZ38EtxVhPH6Af5NoOxSpR9Lr60tlhaaezkwAiOJ4wUuBc37tVLe4gtHVC3MplpgNK2AiyWqYDmkOIPypTAaqjBCYOwdfduPdU5cqASmQpo9sGS/aLKqo1WrW4zLlF8FttQ5i/bIDVRhPaC+szXo+ygWuolCZPG6Umr6ZP757D4RETU7Y4dO4aXX34Zf/7zn91Fzu/fv191pWhp8dcp2EKn/sk/ZMuy6j293KYIqyx1wm7Kgc9/dSptr+06MgXOWseTnmek661a6zkXlSrnlQpYtFKsW1lkfDX3YzmO2n9yhpjKR/rZ5v79pQJ6XY9PuqGxftUHXvXEsduk7mUb6Xjyes5OV9kzGcn2/XnfG2uqoLnOlj6o77e8Lv/XTb2t1wKrqKgohIeHqxEAo6MjsWTJHFRWfoMDBw6odQMHDtQ1vahBBuSAEZZ+PGbR/Xky3e+0qsWs20UQ4tP3SpMphWtEcJC+QD/EDkfqYpljGGAUPxU4iNULzbcctVNfBmJ/yhQntASpo/QiHYxtK/MX6hl9wrK+N1vP+2MMyy1TAjfe/33cuU4v7hGWdMCnLYOH6LWV1TtUC9Y8c0hxmdfnfBfr2z1Ho2UxtPQ3z0AlZh8sefjKovUipGnfxCkiYFxXhg6HqqMmYCY2YKNtRMpKvFuwXo1Yqdrg9Gf+q/fsAXjxll+K743LMcsWRRvBteOc8QGDayIiOnPJ4Gn79u2YMmUKzj//fHeR8yUlJe7RlQN2q5CBgHjQR06F/sN0IZBmPPh7yOBiLjIsf8QunJaOsdZgRD7kJxd7/pgqM1Qg6lgCBxkMjU1LsrxPsxBJaWNtQUBGWh5S9D6Wz9ELva2Yi7kwz0UfRwdXCbfmqXdDiv851bn4Tf9TwY/X9WRmYK6fvlwZyU8g0bwmuV9x7Db7Ro1PQ54rD2nj9bw3mdqos2dUJs0vjCRHGRiNTYPn/ok6xSLwMu+NvC45SFfGGjOIFJ+JDKTENchrDOq6qcf1WmAlmU3ax4834P77N2DEiCnqF4P8Bgs0eIV6dxWycNkMaw8ZzWxRsbzTyuyXtMrhZ9jt5MXYmJqNpx1mcCBH8ZOj723E4mTrSHKC7DPkWKW+oR9wH9uoX5ETIer7G9Z7NhZHZKPiQeuogUYwtuFHs73qy9aw7+NXcmh4f9dmZUkJ7GnudMA11sFDDJMnzwJyb8Nz7+gF8poek5+X8HmZmAtEB6iZ37fdE6OfVLApj5MxeTqQn/4c3tZL5GeW+RN19ACBrMfwZBkwfooD1s88GLWzcIf4/ir4iecFzvJ9WPfmZ2GJ+/vKDMAtfePk+9KyxC/DH8609fUyg+v20yKJiOhMo/5oeOCA+sO0VUxMDC688EIcPHhQvRP01KlTAdMFi/4ggijxrPGs+0E8GcvVA7qHc+0TyBDPWoU6CJCSf1EolmTgCf3g7yyV/zsnIdEdUBj9mszAQQYCW1bIYMLaX0ocSzzj2YKAzKWBgxI367mI46wRgUpuOl4IcjAI85or2rgekyPnWc/5zLlbPWtlvNFOq1WHFeGFtHz7sUSA9qx4nshPe8Ed7KlzFNe5SJxj0UoRGHp9JtT39GpgJf+iIkcAHDgwAtdee574RXAUR48arRYyHdCX8e4qZF6GmX5jD7NFxfJOKxWE5Kq/BOwWwZX5bqPExBTsln+tedmBQdax0uX7hR6Uf6WYp4Ild31zGO8Hp9lHiBP1oxauC7z/VxyIsm1gBGO+9fUw5XrwhfaolED5sN5l2nmPlckMXgVbGqBQm7RMDW8ug1jzmt66qUL9xQV55cbQ4375vyez75+HQtejMNsH21aLWQ/J/lyrkKK3T0x+C7eUy1+c7beGGQGjd8tTMKowRHx/VeREur9fZt8fiezyB3Ch+/tKX5/4j2u1eX2O1eI/Gz3Qh9W2QvxKnPHlSZYbS0REJHz++ec4efIkZs6ciV27duHLL79UZd++fboGVEAl/zjtP7ByorRE/P+9cL4ITyzGy7R2kxNb1ueLZ635XgNIJGO++P88f1epmku4NEVsI1t9vNLVTB9sEWsdlsDLP8eURD3VBu9zGT8fKSLgKS4N5q+hxjVjWqL9ms3rWb9FtwgZkhJ7oOVH35uUS+3HMu5pMUrdaYXJuFsFW2PVIBX2IJX6ol4NrMaMGYPRoyfgzTe/xrhxYxAREaZasSSZQ+rrGmTI5tIHvf/K71E7PAW5ok7+Dz09VNSQ2dEO5MltLSVvYZTXqHMGNRrd1GW2urKoocBtQZKho/uXwZi/+q6HpvnWv+ghsW4dbvbph6Mf1uV2y/2nDo6+SQR8rofQVmKhRzvvsXITwatDBKqibq67RUZTQaaxziz5jigjUHU9jHmq0mw8JJY/dJGa8fB7T5ZhWtkB47NW98HrWsbdjHWWfVUdiILjZev2+UiJnoYH5HSGcfSAx9cBo++70DxmLxf7eeVmn4FF5Oevgmv3cdfBEa3P2ySvb6r+vHR5YKrXS6gF+RoBR87tAf5wQEREBMTFxeH666+Hw+FQ5ZJLLtFroFIAZR8r//2sSlEqB/ryJgIrn/7fK+a6+/6YxTYCnUqBM/54qfoOqTrefY2sLVq9K6gArkcZfaNs91j3xbJKuHWpusdIzcbdgVIlqc/o1cBq1qxZuPjia/DAAxvx/PM7MXbseZg4UXX3V61Zvox3LfkLbtxqndgn6nhe+qvp5e7+WP7qWMkHYa/6bR22w/v3U9/vdanz8H0AV8xzDHBixjuYvB7wA2rnPVYW5rud/F2fuc4sso4KVN3n0cZxfO6J5dzVtXpdi67v2ZcINvdZt5f3zft7JtDxZcD4NLLDA/THE3yHf/ewX3c7n5cuPucg+/xlZWHJQvtQ8ERERFZHjhzB73//e/zud79T5fXXX9dr2pPof7Tk/aW+aff+BgmTxZaKZqT2GetkkCWDBWu/JWvrS1cKECC2wWxp8+HTktVTLIN92Yq9v5aRAijolEDq23o1sIqMjMT8+fPx1VdfqV8Q1113neqAOXbsWERHR+taRD1DpVeuzsaOXhjK3uiPthgXFVlTCImIiHzFxsbihhtuwMKFC1Wxtli1LQGJ03zT32Rg5WkpMeqgpNReR8y1/dJdEWSVy0EadDCl0gvzuyawWrHFEqwJKhD0TaXzL9D1GH3AeqUlK9C98RoRUc4bKYAu1dUiP20RXwbcx/VqYEXUt9SqERfzgu7X1ZUm4958mW4abAsjERGdqWQfKvlH6Z07d6pi7WPVnuS7jIEfPK0ferQ5C3PQBOsIf861i5Cem4WleuAJYzhw+6h6xiARKZgvW1zGp2GpHNUu2VrHCM7aHcLcRwbmurcR+1gijhPUoBcG85rtIxYag0GY19Oj9EAVGcnW1Enjc3Dk3K37UYnrXGOMAihHS0y49Vlkp+YjfYmfYe+pz2BgRWSl0gt7I7gx0hj9pkgSERG1oba2Vg3BPnz4cNWaJUcNlH12/JJ9o8qzgbSxum/PXCDHGA7cQ6b4ieDK0s/KGDbdM3iCHO67IqdYDV5h1pm7IguFf0lzp9Yl/0K2tFjrjEX6tEKvdMIgpGYjG+a5+NmHGr1P91nyF7SZ/cEs1zO3RL73sgsGg2jvPVaSO8gUx7YME1+RA0s/q7kozqlwj5hYtFJcZ64D2Xe577h7NER3gNjedVOPC3PJhM5ukJubi4su8h4hgIhC8fHHHyM1tRfG2Scioh4jn6H8/a5/99131WtqvvWtb+klBtnnqri4GNOnT0d8fDyGDh2qypAhQ3SN/ku+C0sFQZaAjag7BPq56wi2WBERERH1A3LQr4EDByI7O9tWtm7diuTkZAwbNkytHzx4sOrHTkQ9i4EVERERUT8gW6AuvfRSPPzww7Zyzz334IILLlADgI0fP169MDgqKkpvRUQ9pVtTAZmyRNS1+HNFRHT64+96op7HVEAiIiIiIqI+gIEVERERERFRiBhYERERERERhYiBFRERERERUYg4eAVRP8KfKyKi05/8Xc93gRL1rK54VyhbrIiIiIiIiELEwIqIiIiIiChE/TawKloZhrAw/yVlrVPXsirCKrU+BTn79SI//O131Qd6pZeO1O1PnGtTEHZTDvzdxa4k75//z8qJnJsC3Utjnfue+z3P9urI74W2vw+IiIiIiDqiVwKrpqYmNDY2oqWlRS/ppNRsVLhckN3E3KU8G0gb6/vA/sEWZKRmISs1H+l/KNILrYyH8bklXvsU+ytO9g4AOlKX/Ppglbp/z96aoBd4FK0ci/RcPWMj77tYN61Q3/MKZCMdY1daP89g6iRjeVES0pd0f/BIRERERGeGXm2x2rNnDzZs2GArO3fuRH19feeDrvFpeDbHgfz1WywPzeJhe00GMG0+7l7oAFZsgU9otX8L8nIdyF6TBtujvrm/tBc823SkLvlRhFXJGcha4nX/VEuSCFhX6FlvH7wgAi5x3+9K1gsSkLYmG44VT3han4KpI825WwVcL5wGLYxERERE1Pt6LbDav38/nE4nBg8ebCsVFRUoLS1VLVqtra26difklqJUTxqBEJB1dTISLk2BAxnY4v1Avb8U+XrSW8KteXC5lsN8VO9QXT/aTbX7YBX8piyq5as8QZuat6S8eW8j14vj5Jgpi5ZjqnOwbOuvla3UVifQ+Xj2EfTxZeshsjB/jqqlyaBqLjJkK2S5CIT0UitnaTGQmoL54/UCafx8pKTmI+894/yDqWNIwHwRZGesYasVEREREYWuVwKr6upq7N69WwVPM2bMcJcrr7xSLfvqq69w6tSpTrdale4SYU9qIhL1vPO9PBEI6Qd59ZANZLzh1aY0Z76okY/0s4NI5etIXT9U8PUX79YaC71/eyAgQo83MoDM+UbQJoOW5GJkl3tSEQsz5TlZAi8pNx3p0Glx+piyb9PYtCQU6u1crkIkeadPiu3m7lqq11cgW6ZQWlPnQjm+9TrckrHcUscf9blOS/S7Pn+XEUYHU8ekguzcPGzxDhiJiIiIiDqoVwKrN998E8OHD0dsbCxeeukldzl06JBaL/tgycBKBlkdJh74ZSqZY+F8/XDtxJb14mHb/SBvtFTAOzVMPdgXioBGPICLIMPTCuMVKCgdqdsZyZifKfZtS2cswhZxXbLVTc2p4GQp0iwtM8lXyzMqRqntuqxpcZLeT5G1Vc0IavJs/Z2yUPgLs0YC0paIfVuCkFCP75hihr29aHwikkQAaz9fIiKiM5yzAPc9Xaxnglf89H0o6Pjfm7tJMZ5ZVIBKPYdtzyAx8RmxtAt1cp+B7lPx04m4b6P7jC0qUbAoEc9s07Na5cb7kNiJz4m6T68EVs3NzSoQOffcc3HjjTe6y6hRo9R62boh67TbYpWbjrHuoEYX2XenyBIk+PS5kS1GS/22CJkBhmpdKZJBgpSBuXK/tsEPpI7U7TgVpFgCGefaJ2zpc8m/EMfVgY97dEJx7b6SkGhNi1NpeA77Mn8sLX7+dPr4+0vVL6CkRH9tSj1NXGOq+EVW2mf+FyAiIupl4iH+scXYPCxOzwdJBBkpawYjbqie72XFT6dgdXQchul5XP2oeGZ7FNfo2S7RmX0Guk9y+d5svPCTyXqBR/HTs7F4ExDj9ZFM/skLyN6b4hNwUe/p1cErTpw4ofpamaWhoUEtV8GKLm3yNyqgKMstfXdUy4pO2/MEYHNFcOHdIuRlznL3/gozxbxPC5dFR+oGy5YO6N3qJlj6N81dIQJHmZLnDvDa4xXsdEZIx+9bvFMEiYiIzlzDEBepJzsiLkZP9A1x7ohKqzqAsrIDqNKzXaIz+/R7n4rxjGM1spY4MMhZq5dJYnliogjE9KyXWucgOJZkYfWfLC1z1Kt6NbCqq6vzG1h1HZ12llPhDnzcRQYBQfavSb5LDqYQXMpYR+q2zZIOaBl8w6BHOcw0hxTPs6Xktc87Xa+jQj1+5yROcQAlpX6DYTO1MJg63vpEWiIREVEPkSlnieKB3Sye9DP5IH8+7lwnJh+5yp7mptLerNt50tlUStr8X4qp9bhzmrk/I33NO7VNHduaoifTDm37bT+1Tu0jYAqccdyrHhGT6+7E+eZ52tL2zHMrVl/dx/ZzXn7T78z9dHCf/u+TsG07RFiFy6Y74Qmr5GeRgtVtDOolQis4p1+GrPWLUcBWqz6hVwOryZMn+00F7DI67S3lUj9pZ+YAFPqdViqdra2R+izpcx2pGwozHfCFP1gG31BKUWoLtAxG61w7xid2QeAX2vGTxJfOpN8lJIotvYNhPfS9+RkHU8fDuI6+kZZIREQUnIqKAVi5cgS++SZCdZuQX+X8gQNhakRl+UfPQGRQIlPO3Bk/4qF98P2zdQBxDR5VA1aJSfXHU53mJgMIx26vAas2Y3GyEVRM/snrOmvFyGB5XaWzDUNcNDDYq+lIzZopejJ4SV6MeUXW/a5GijXA8eOax0TdxwIl4E3Gva/qDCKV2fQ67j1XTKuWohgY2XTGuW2+PwXVy/WxZfCyaTEyzWDn3AW4TdyH1cXWAK4S297ZLO7NDcZ96eA+/d8n8ZkUi5PNvAwzbU1f8rMQ+3jZgajqJgT8RKtm4jKx+SrbeVJv6dXASo7+Zx28Qg6/3nV0q4r30NtuRouQ+U4r1dIk+2z56R9V9Id05FsGauhI3ZDo4C9jhVcaoO4bZBsqXA/aIdMe2wyaxqdhqbjujGTrQBvypboiWAy6b1gIxzdb4jqTfiffPWUbnVCc9xKv+x1MHZPq79U1QTAREVFPOXo0HGvXDsO+fa1qoK/yciAnZ6h4jmpRA4AF7qNeieq94sv0sxBVVoYyWaIdWCce4B+9Wq6vwoGyajTJp/iWU+40t+Li1eI5ZCkc0XobUaZdKQOE3agW/9nWOveh7JQ8pgtN1WXYZ0tna0NtNTaL/4cnDrfs90ERTLx6rwiPAqs6IOoeCJSAVwvnvjIYp9OE6rJ9CHg6Inh8eLo+trgPS8TzyWvvbDOCutphuGSBA8jarlukBOc2bBKPZFlXzgyc/tfGPv3fp2JsF7fSkTjOa5/ysxD72GdtxfKnCuMSxXl+Wd1mMEo9o1cDq/j4eNtw619++aX6ZTB+/HiEh4er/judptPnPKMD+jJGsdPvtBIBR578K03JXHffIbNsuVr8kLtHyBM6UtePdt9j5aaDP8HeOpSAtL8UIss6eIdYXaibittrDZIDT1TkFBsDbagyFunTCts9b48Qjy/vu7+XNLdLHlfcd5jHFect5ips5x1MHYMahj9g4E1ERNT3OJ0RKCkZCPmqzx07BqCwMApffDFAzIdh+/ZI7N9vDAAmW0x8TcZVDvE/9S+vQLyZwlbrxD7xAB8wThGuWSGebR68UAUoZhrhsEtllkoYIkIZrGKu8Qfk28/zpMWpoKndYKJrOBJHe65b3IcGGfOEDzRa08QZDLvYIZ5rMrFdp9lVlmxCgUzZmxH4ZrW9Tz+c1fhMfJk5Ybgx3wnDJ8wE8spxVM9T7+mVwEoGTnI49aqqKtvLgeX7raKjozFmzBhERUUhIiJCb+FLjUrX1rugVPDjPYS4Fz3ohGewC/lQLvYrm14txToYhkdH6tq1+x4rC3WdfvdrGZVQleVI9r5mdX3+X1ZsvMjYsr0l8PB7fmpf1r5UIRxftcT5eUmzSe8nqPvu9z4GU8cYECRrSXCfAxERUV/wzjuD8eijcWhsDMNzz43B0qUT8P/+3yg0NYXhf/93LN59N1oFVjIl0JcIFhy5Oh1tNVL89APyp+q1pQiLGqbqpqzpwgGrqmbiAZ16uPn+2e5+ST01yp2rtUlP+Vc7PEW1OGWqNLtKbNtcIGa8U/bs2tunj6ERIjwFWls6H0rWtsjP+lMcaP8v9tTNeiWwmjVrFo4ePYoNGzbYimzBkkFVZGQkBg0apL7S6UgEZeIXsi2VsKfJYfiRjbuDCISJiIj6iuuuq8VvfnMQAwe68F//9TVefPETPPDAN4iKakVm5heYP9+psn8CpQOqdLSpD3j++CgDpE2LMbutwSD+JFMBzQGrco2UQJXSFiqZ7hYFx8v6XHSQtdrRR96HVevEhTLlUaYDBpMG2KtmYbLsS0a9qlcCq2HDhuH666/Hww8/bCuXX345zj//fEycOBFxcXGq1YpOU3OWo3BaOhat7Y3fnEVYlVyM7DVsrSIiov5FBlSxsUZr1LBhrYiPb0VMjAthYRDLWzB4MIwUfbkgEDVMuO4HJIKsihwHsDdQH52jqF4vA4ppehujz1LxFjm6XfvW75adukyVKPtcT7oZfaKMfcsgqxBZ2IzqnsgFDELVjMvE+WRi+8aKdtMAO2XcJDWo17ayzveQqizbBqROxPg+cs/OZL3ax4rObDLNsc1UzW4j0xh7Zoh4IiKirvTxx9H43e9GoLkZyM8fhzVrJiMvb6xKBfzzn8/G9u2xbfRTN4YEtw1VXvUqnknLh8NxVYABI6bgHDVg1QuewEu+zFZlAq5H2UG1xI/RmDRNfMksdA/+ULkxE3fn6RlJDVdubZ2qRckzjyFDBDDz5+pFvU2Pupf56K/aTQPslNpZuFzsf0NZ53tIHS3bAEydgM730qKuwsCKiIiIqB8y0uda3f2p5Hxrq5FW558cirwC2XtT3P2ZEhNTsEoEP7mOYXrAiNG4+WcialLvsZJBz3Ckylak9Ysx29zGEeMesOrTAzrcuuguZKca72cyArdazHpIpvZluvtyzT7yoNE6Zrr6UbiK5mFxst6vrHN/BLLLH2gzgGn7PVaG2XeK81PvsQq1z1YVZqoRELsoDdDnPun9WwLQjilWQ8tnzZ+lPz/qTWHihy/wyw5CkJubi9TUVD1HRF2BP1dERKc/+bv+oosu0nN2su9USckA3HrrBPz3f38u6tXgk0+G46GHzsezz27HBRc0ugcF899XPQYJE0ZgkPVP600n7MOXjzwLk4bKbVtRf1Sm/o3EWZOGwrO3Jpw42oLoEYMgKuhhwy37de/P61hi+dGWaIyIasRRc+Q/97FM5jH1rB8jz5qEofA6Z28xCZggzs84nTIcgDwOcEINIW+cV1Sjee4Gtd+Ies+5aZVv/Qyzf/RdvHs8HWdbD6nOvaP79HOfRpYje9hlaMwvxV0zVSU7fS0t8jq8L3nbH5C49tvY9/u5aGnjdlD7Pv7445CfsRhYEfUj/LkiIjr9tRVYydapzz+PxC23jMdjj+3EnDnHxQNhHJYunYL/9/92qMBKDgAmS1ujK1OwKvH3n8/G327chxeTW0JvsfJLBK7OpxD1P0Px0ZobMEovbV8lCpbMxomlp3DfuJ4Zov501hWBlfXvFURERETUh8n+U9Ont+CLL/bi+usHY/To0fi3f4vCl1/uw2WXDVMjLA8ZMoRBVRcw3tk1G/deWIjchUO6KaiSqnBg6gMonLEYmfp9XsGQfdYWzyjEA9MZVPUV3dpiRURdjy1WRESnt7ZarKjnqDQ+maXonSrZTeTxolvsqYRtiUmYgBERJ3vk3M4EfToVkIiIiIg6joEVUc9jKiAREREREVEfwMCKiIiIiIgoRAysiIiIiIiIQsQ+VkRERER9CAcAI+odHLyCiIiIiIiolzEVkIiIiIiIKEQMrIiIiIiIiELEwIqIiIiIiChEDKyIiIiIiIhCxMCKiIiIiIgoRAysiIiIiIiIQsTAioiIiIiIKEQMrIiIiIiIiELEwIqIiIiIiChEDKyIiIiIiIhCxMCKiIiIiIgoRAysiIiIiIiIQsTAioiIiIiIKEQMrIiIiIiIiELEwIqIiIiIiChEDKyIiIiIiIhCxMCKiIiIiIgoRAysiIiIiIiIQsTAioiIiIiIKEQMrIiIiIiIiELEwIqIiIiIiChEDKyIiIiIiIhCxMCKiIiIiIgoRAysiIiIiIiIQsTAioiIiIiIKEQMrIiIiIiIiELEwIqIiIiIiChEDKyIiIiIiIhCxMCKiIiIiIgoRAysiIiIiIiIQsTAioiIiIiIKEQMrIiIiIiIiELEwIqIiIiIiChEDKyIiIiIiIhCxMCKiIiIiIgoRAysiIiIiIiIQsTAioiIiIiIKEQMrIiIiIiIiELEwIqIiIiIiChEDKyIiIiIiIhCxMCKiIiIiIgoRAysiIiIiIiIQsTAioiIiIiIKEQMrIiIiIiIiELEwIqIiIiIiChEDKyIiIiIiIhCxMCKiIiIiIgoRAysiIiIiIiIQsTAioiIiIiIKEQMrIiIiIiIiELEwIqIiIiIiChEDKyIiIiIiIhCxMCKiIiIiIgoRAysiIiIiIiIQsTAioiIiIiIKEQMrIiIiIiIiELEwIqIiIiIiChEDKyIiIiIiIhCxMCKiIiIiIgoRAysiIiIiIiIQsTAioiIiIiIKEQMrIiIiIiIiELEwIqIiIiIiChEDKyIiIiIiIhCxMCKiIiIiIgoRAysiIiIiIiIQsTAioiIiIiIKERhLkFPExH1qtzcXD1FRMFKTU3VU0RE1JsYWBFRnyEDq8+iUjB8JDBwkF4YginjWvQU0emp9v0NDKyIiPoIpgISUZ8SEx2OiJZw1DaH42BYaIWIiIiop7DFioj6DNliVRaXihNNwM7mVuwJEwsHdj5AejaZLVZ0etu7OZ8tVkREfQQDKyLqM2Rg9U1MKipOAv+sbsG2JvHracgAvbbjvknXE0SnqW3iZ4aBFRFR38BcGSLqU061QrVYNTSKmToRWFWGUIiIiIh6CFusiKjPkC1We2JT4WwA3qtpwdZKEWEdlel8kaLIvMCO2fmI3I7o9PVZHlusiIj6CgZWRNRnmH2snI3Au9Ut+OSwCKxkOREOtOpKHbB9TbSe6l78LUq95etX1zGwIiLqIxhYEVGf4TewOiTKseZOBVYfPRmrp7oXf41Sb+HgFUREfQcDKyLqM/wHVmLmmCitHf9V9e6vh+up4Lz7tRG9XXZu93U/PbRpNXbXzsCFt1yFISjBjuf+joYLfoikuaN1jW6yMxeF7wGT70nFGL2IeteOJyKx9Yom3P5dvaATnG+uZ2BFRNRHMLAioj6jqwOrzZlxeqp9r+84gW8qm9X0t0YNwL9dMFRNB6Mjv0UHv7sGH1Qn4Yrrr8AxfIEjf9qM4zNux6RpI3WNbnIgD9u3AHN+mIJTehH1FifeuncC/uc1YMVbjUg+Vy/uhOP/5AuCiYj6Co4KSESnrcZmV8BSVtWKd3c1YtMXJ1R577gLXw6IUEVOm8tlHVnX3z7M0tQSfDHaxMRXNa9mFH91u7To4M84LkvvlnCcM8j4PGRU7r9OcIWIiPoOtlgRUZ8RqMXq+cUxuDsBqN55AsNXm+0tw/DFc4Nwvpj68p+V+M4fjaVW6x6O0VO+Pt7bjH8eaMQhGK1Uh6OGoDE8Qk1HtbZgdGOdmh6DAZh3VhQumhj4fVpt/Ratffd/UXlIzwy5EFNGbseu6pmYd83lcOJL1Of+DScunIHG7Z+6W5Iip6RhwsyOpgYeRtWmHNQYp60MnrUY487RM5Xrsftt4KJZrfh4a7le6FVH2YGDuW9YWrXOxqjUFLjv5LG3sO8fpYielYiTW7dDfEKK7378OYT3/2MintqkZ7EA9//zZVwiPlurr58ZhOVP6hnh4v/di6XXeRIYq1+9Bfcs3gD87B08N/FJY1oS87n/38We9ZZlhg+RP/lyrFXH/RkOz5PTknke5nrrMjXjZj83rzrOl/HEvDvFUbz3b70G6zFMv8Kq3Q9CNlx5X7v9/H25tm5kixURUR/BwIqI+oyAgdUvRWA1WFRoacHSnx7Faln5zpFwzTOGYK8WgdVwP4HVn5YO01O+3ttzEluOtODwyCFobQ7HgNoohImvkmtAK5pjGhEuvo6uqsP8+Ahcek7gEQYD/RY9WfgUqisn4tplt2C6mD/0xm/xx+IaIHYmLr7iMpRjJ8IK/oYDYt1Z31+G2y4UE8438NsXi3HinDSMmTZK7iYIlah5Iwd1o67FslvkkYTtL+PXm49hyOV3IVZmRFZvwMF39op4NAl3/vvVqp/VZ6/8Gn8tOxtxNzigrq76bRx6ZztaJon93Gzsx6dO67uoe3UbahCLC+/4Kb4vgwp1rL0YOON+xE+Ulfz5EBvPvwLr9JzHDbjvrZeRrIKTQyj62ST832a1wu4/38ZL9xkBxpgP0vEvd+WraW/f/f4N+GRzgZ4zfPeJMvznv8kr3oqvz78EWcZiu+tvwHc3FuATPWv4FVZ8uQxT1HTgc7vx5VO4Xn529XnIn3kbdEjnw6jn7xxW4i9fLsXn/zcYmb/Ri6ws1+5tUMmrDKyIiPoIpgISUZ/34206comIwE+vNiafTzLfa9WKPD9BlVTf6ApYZBqV3KsMquoODMTl3wrDjRe7VJHTcplcJ+vIuv72YZaGJj+l6i00VgITv38zBpacwvOilM1dgCQ9UGGLqmdMQwQyP5hg1HnedRV+MCsWLXveR633PgOWKgw7KeK14aOMfcgy4WYsW/ZTOCbqOuoWxiLphqtQpusMTE4SS8oRuceoU/u1CKpiReC14AL3fgYuuBYTRZ3G7YeN/ejRGWNnLcB0l+dY104CGna/hTr3OdnL4Y1P6aAqC4UiEpV/0yvMlPMF+L9NH+g6i3Xg4kB2uVHHVZ4t5oTfXIH8rca+jDZGyaxXgWwdW3yyOcJ3WfU+fR7GvJJZaOy/SIc4MqjyXobPELNfX8PWF41zS81GhT5/s966tS/jsKxjHbnS3Jer0B1Erdsur3MOfm45t6wiWWc5pjc5ESMjbPcyz/7xm3fxhTp/30JERH0HAysi6vtebEC1npx0hWy6GoYU+UVoPnwSPzYmg/Ze6Ul8XB+GqoFDEFEbheuTgFmDmnBBc6Mqclouk+tkHVlXbtMhrdU4KUKSSRPq8Z5eVLInHgP9jKcxccoFWLdfz1Q14MDkySLgqcHoGr2sXdPxbRHY1Hz6Eo689bYReOyvF0FPPTZVqQpaHAaGN6BEz71XazyYR6nBEysxWqYRxo1G2deNcoHy3tcXYJLY98mjX1oCmlhMmhzv2bc41sApE4Hj1fDKnHOLPb5efXXk/AgjdNA24gEdQKy8VKw5hLoPjLYeR84zuCJCB20Rt+B+FYABG3Z8aEyYUh34jqoXj+/coMIv/8vCff+ry7pitrH/b1/pDnz8LRs0wvi6e8cvjYncdIwNC0OYLMkZxrKC/eKOWImAL13vq2Q2ZuvzR6R8YXUj1pU04ZiOieqPyzrye+QsnDvNWJaRbOx/4fGHdXCWgTuNVURE1IcxsCKifuAE8nSnnwHxg/HzOweKEMFQ9nbHxrj7/CBQXt2CmlbxiBseodL/RscAMeEuDGltVUVOy2Vynawj68pt5LbBaj5uREW1ZsCkNGPQcN93azU3egIZqaTOeOqODHpQw0YMX7AMd84S+z71GWo2/QZHZPloh17vUW8LtKwiEBkmW71GuwMvQyNqZUuMeND/lrFAqa/zhFnSe+oSwox0QR+HUPOlMdXa0OwONN/7WgYVoqhALgLxRhc3XJgw0hO0iUAzYqIOkFRgYnHBJDSoes04aLZG+Vvmw4ExI/Q93+9CvZrwt8xjhteh7bahxuxHpx2rNj/TRhy136oAmnHug57WLWnDNeFGAPcvL+I1vYyIiPouBlZE1C/8uFj/iT8iAv9lpgG2tOC3bxiTfc3MUf6jooNHgmiGOnoEQTdWaTJIKUu+F8uWLVNFBVlVb+LYF5W6RnBqjjj1lJe4MWhrAPrmo2aboj+e1phgfLJb58RpX37jvz+VHGLRHgQK/pb50dCgJyz8LfPhTvGzlnW49QK9PgTvfT0bi9z79KQL4u93YddnepqIiPosBlZE1D/8sQFmo8AYMw3wyCljIIsOmDoOODsuArHit58c/U8OVHG4FqhtDUNdeLgqclouk+tkHVlXbiO3DVZJXDxisRf7PQPwCZVo8hMx1R61Bz9Ga1ccRsQb88Eq2SPT/4xWIBlkyX5PrS1H9Nr2jMYIGQvWVFpS/qQd2L/PuyWrBgd22885oUac86Tz4X/simaMSDRanTbc9QfsVlNiL3+9FfdMj8Y9S18Re0zAvAVGnVfv+Rk+ND/sQ6/gL7oZJ+t7c4yJXjDje/okVjyOe/5h3OPV/7PA3aK0NmBLYNu27zUv9EO8Pn0AhssUwGy5/3hcsdYTXB045dUkRkREfQ4DKyLqJ47j8cN6UutoGqDp0sRoXDTIhZENdWiJacTGYmBrfSR2DIhSRU7LZXKdrCPrym06ZNhVmC0Cm8qSfJgNIc1fbMIeEbB5O/75WtSaAVjN22j4vAaxs67AmKAf1negdtNvbK1TJds2450yYOK39SiB7WrGmLlJiK3dhhpLCmHDR2+KcHAiZl9if4HxiZ2bUGcGieX5+Ko8FknJU91pft4GpPxcp7n9Eo/JYEqUpcuM0fuyfnk7LhHHb1hg1tmA56826txz9V1QjZKZhVg01Uyv63nvTf2RDnLWu8/Nfv6d8+o9iWJft4pA8lL8OkcHn7fJ/UfhrAFjkZ4rlzhw42VnqXVERNR3MbAion5j9dstntaULkoDlEOqDzmrAW9/40Luh2GqyGm5TK7rtKoGDFmwDNdO2o8Tus9TzdHJSBLBlreJ378Wo0t0v6h/foZR31+GHyXHBwxSfM3Ej5Zdi7PK1hr70PuJnHUnvn9O8MHIe5FXqf1MrHrTvZ8TjUm4c9nNGLLH3o41cdZkDPinPlbJcSTdcS8uiAx8rJI9F2ORNb1NkyPgLTrfGFDDqGOOFujhyKmA64HZngE+esP+kbYWJJP1/IOXgIVP6NEOlQjMGNGIY9evQ4UOrjzkKIrr8L1hQXXUIiKiXsT3WBFRnxHoPVY4Jkqr/FU1GG8+NRTzo71fFuzfc/8ZuFfQZweN/R8OMx5Y5eh/1hcEy5YqabRrAL47OhLTx+mRFTro0nMH49sD9UxLKw42h2OcCNg+/EI+jEfhxmliv8dagOER7gE5qo+d6kQQYezL2rOrsa4JL5kB0fhB+PFw4Cs1Ap02ciBuHxuOk7bjee1HnLNxrlrYe2h+fRuGXvlfuGl2uKgtuXCwwnsEQn8G4F+/EwnrrfR3rbZ7JtiuQ5h2ziBcPCQMaGjRA18Eu8y8Nuv5BrtMauf89f2M8trOfT2Wc/PUlTz13efs5rJ/Zl5id77G91gREfURDKyIqM9wB1YiXnq3RgQ+Vd6BVce0FVhVngAqaltwoslI1JNDqsvR/yTZp0qm/0lDIwdibEwERrU1csOZxAysLvtP1POe9DoGVkREfQcDKyLqM2Rg9VyrAyeagb0isDpYKQKqIyK4qhcLOvGbqq3Aypt8T5UcUl2SA1V0uE9Vt6hE3VtrUd9OV7LwSbdi+HdG6bluxsCqT2FgRUTUdzCwIqI+QwZWNx25AWgUv5aOioBKBlVe70vqiOd+1rEnf/M9VR0Z/a97+aae+eOdKtet/KYPUm9hYEVE1HcwsCKiPkMFVgevEwGVCBIqRVBVG1qw8NyDbFKh0xsDKyKivoOjAhJR3/JRHfBNvRFcyX7+oRQiIiKiHsIWKyLqM2SL1aaaGxATB0Qaw6WF5LxEo88U0emKLVZERH0HAysi6jPMUQEHDwGaBwGnOjfCuduo8M69QJiov2BgRUTUdzCwIqI+QwZWfEgkCh5/ZoiI+g72sSIiIiIiIgoRAysiIiIiIqIQMbAiIiIiIiIKEQMrIiIiIiKiEDGwIiIiIiIiChEDKyIiIiIiohAxsCIiIiIiIgoRAysiOkM4kXNTGFLWOvW8H/tzkBIWhlUf6PnO+mAVwsJWoUjPBqtoZQpy9usZi6KVgc7buKaA56uux/c8nGtTELayo2dHREREbWFgRURniASk/cWFvFsT9Hw3mrMcLtdyJOvZoIhgbO4KPW0ll5dk41k/5120cizSc/WMjyKsOjsd+XrOKuHWZ5FdMjf0AJKIiIjcGFgRUb9SXl6GTZs24i9/+Qv+9Kc/Ye/evWhubtZrTzciOErOQNaSNBEWWonlYWH+AzFJtZjNRYae9SWCzCVZyFiTgzba74iIiKgDGFgRUb9x4EA5nM73MWDAG2hq+lyVwsJ/YOfOnaivr9e1AvGTCqhT/8J0WfWeXt4WtY3/lD03Wyqgedwi9dU8VthNnqBGpeaJAArIR/rZlnP8YIsIjrIwf44xa5BBlQiaUrNRUZ4Nh17qJo8t9uXIqUBFjs9ajznzkZWbjhfYakVERNQlGFgRUb/x9ddforr6A8yceQDnnNOEK69sFIHVa/jwww9RW1uL1tZWXTMIMkA6Ox0QAYjL5RKlEEjznzpnMz4Nea48pI3X80HKT5uL0iXyOKLIgEgENYt0AJVwax5cRVliyoHsck+6YtEbItjKnO+VUpiM5XIff/FuxdJUGmIwKY/JmJ8JZLzBvlZERERdgYEVEfUbJ082obJyBHbs+BbWrz+M2NiPxNJKFVRVV1eL9SeNikEo+oMIolKtfZdEwKKCm26SWYjlZsuTCM6WiqAmf/2WNlLxirBlhQi1piTq+a6XOMUBlJQyHZCIiKgLMLAion6joaFBlEbEx0fh3/4tDoMGuVBaukcEW5Uda60SoURpiQhaFs63t/qMT/RNresiHQ6Q9peiWHxJSmyv5anzEhKTgNxSlOp5IiIi6jwGVkTUb0yZMgWRkQnYvv0IRo6MxIsvNuKccy5Ry2W/peCJYMLfaHoisBKhxhmmGKVt9RcjIiKioDCwIqJ+47zzzsPAgWehqOgwmprC8fHHsSKw+i7OPvtsDBgwQJXgJCIxVU9a6VaiM0sSEjvYX4yIiIh8MbAion4jKioKERERKiUwOjoSS5bMwZ49xaLsEQHXQAwaNEjXbE8CEqf56eMkAqt2B6/oKbr1rLi0+3pAOUtFGJkqgkw9T0RERJ3HwIqI+pWWlhY0Njbi+PEG3H//BiQmzsK0adPUSHinTp3StdqXfJd9ZD41jLka8ryvMEbty9/VfT2gSneJMHJaov/RBYmIiKhDGFgRUb8iW6uOHz+OgQMjcO2156G6+iAOHTqk+lgFnwooyGHTy7OBtLH63VJzgRw/74XyFsx7rDpjzt3ITjXeYxW20hgCPfnqLGDFFv0+rK5mjDqYdbV9MHciIiLqnDCX/DMvEVEfkJubi9RUf52fPN566y1s2PAizjmnDqNGjcI33wzCd76TjOTkZCQkJHQsuOrzjJcBo8jlGaq9q8gXCa9JREWg92FRvxDMzwwREfUMtlgRUb8yb948XHNNKh54YCOef34nvvWt7+Lcc89VqYCyNev0YrxbK2NNThe/a8qJnDUZyFrCoIqIiKirsMWKiPoM/vXdv6KVYXhiSgXy3C8zDo1zbQrG7loK1y+YBtjf8WeGiKjvYIsVEVEfl/wLV5cFVVLCrXkMqoiIiLoYAysiIiIiIqIQMbAiIiIiIiIKEQMrIiIiIiKiEDGwIiIiIiIiChFHBSSiPkONcHbJJXqOiNqT+/77HBWQiKiPYIsVERERERFRiBhYERERERERhYiBFRERERERUYgYWBEREREREYWIgRUREREREVGIGFgRERERERGFiIEVERERERFRiBhYERH1ZxXrkfLkVj3THx1Gzr3jkLLhsJ7vPkVPBjqOcQ6r/N7GrVg1bhzCzOL3Xhvbu+vcux5OvUbZ+pTvMiIiOu0wsCKifqGpuRmNTU1oaWnRS0g90K9chPwhQ/R8fxQNDBRfhoqv3UkEN3NLs/Hs3Yl6gUfRkzOQ/qqYGGrMe8ig6joU51RAvkvf5SpE1uPXeQVnMqgS23+3UNepQPbARRhrDcDmZ6Hwu4uwqAeCRyIi6j0MrIioX9lz4AA2vPOOrewsLUV9ff0ZGHSJYGSAnqQ2iADpul8j62c3IuFInV4mGa1Rcx/Xs16cG55HBrKwNEXc54oKUS7E8qIs5P97Hop0HWzNE0GZA9m3X6jrRCNtdTYcjz8PEY8ZaiqRfHs2YN2OiIhOOwysiKjf2H/oEJw1NRg8fLitVIhlpQcPqhat1tZWXds/mQ7mTtnyl7YlODf82FbHJ31Mpt9Z1vvuwyt9bNxT9gdqmRrmvUzv05OOZuxj1VavfblbQuTyc5G+Tkz+ar7v/izU9bSRiqbuiZ/1arm15UWdt+Vcxv3YEzxIOuUtx7zHln1633fftLu9bafTSe0cX13nk+L45n7Mc9/6iQqQ5s84Yswr8v5dh4zUbFSUi0BIL7UqPVQAZF6OZHcwVgNMv1zsaSW26F07qz4HUh2YP0KsU0TduEuRklqAvE8t3zcj5LKVeIKtVkREpy0GVkTUL1QfP47dTicaIyIwY8YMd7nyyivRGB6Or/buxal2Wq3kw71MB6tQKVs6tetVe9qWrDP235NRaKmT9O8zPMGVfLiftQhJReZ6l0rzGmsGAipAEg/smWZqmFif+WvMtQY+Q2Xqnlf6XrTOQ3OnoxnrM657Honl+lhFWcDj1+mgZD6Wy7SzVDGpjpWFZLnYj4S7X4VLBB0Jet5b8g1iv6++gS3WIEkEHlseB7JumK9nxXVf9zWyzXNR17UJ6bO8rkvcz/Qh+trVMY3+R7b7LgKZ4uvswVX+7Vej9EHPeofYjy11LqjjDxT3ZxHybtGpe/9tnHvRR48YAZIZ+yjy/ok6L9+IhBPNepnVYZTuAByJZ+l5raZJfSmuMs6ttGw9MPVsJFgbwurqAZe4pn2VeoFQF4v5CxzIf/OTgAEuERH1bwysiKhfePPjjzF87FjExsbipZdecpdDhw6p9bIPlgysZKuVfzpQkOlgKmVLlgsxP1OsKq3SD7u6TtGDSLbUkQ/gebpvTtFHv1aBzPLp5voKJD8sHtB14FKUvwj5shXkITM1TKx/SARw+HWnWiscOf8/pMXoY02/QwVSGR/JiERECRXH1QM8WsWDfIXlId7bEXGPDllba7zMlK0wG+wtLGYrz0wjGjGu++eec5HXNV8EZPgapWLWw4HsO/S1y2NWfII8mSq32nLfY25Enriny3XMpsh7OsOzfqn4XKxBSPDHz8LSG3XqXqU8d/GZrvQTIKn7J+oEvC+6z5fLX9AlROj1YaK4AgTzYRF6QqpDwtkzgbwDKNVLiIjo9MLAioj6heaWFoSFheHcc8/FjTfe6C6jRo1S62ULRbMIrgK3WBktFMtVOpiZXjcEc1fIdfpXoQomHEiMtwYp+gFcpYOZD+kihDLiDUOl+YB+GKVfiS9TxyNBPdRrlUYA15nWiqTxQ1V2mVJzygikIrp4sIqaJOP8Npnndxg5f7C38iSvEMHjQyIwEOfiTuu7JMNYqWMMw0wkutPiAOenryFfLouzBDB1MuAS98xyi2z3VK6XGZ1hkca8EPTxUycg0dqPqqIKxeJL0sR4Y743JUwU312fegWCRER0umBgRUT9yokTJ7B//353aWhoUMvN9DBZ/KtB0QNhCBsiH8p13xpRt1C2WJmGyhYGEQSMMWZ9GQFN4Id04wnfcc7Z6quHiBi8AoWgtViChG5TY7T+5L1mpAPKVqZ8IGt+krFa2vygOP0hKqCZ+7jDSMmTqYk+xP23nnJkmAh2JiKxvcsI1DJkCvb43p9/tP5vrkfuYzta5LmtR+kxY5aIiE4vDKyIqF+pq6vzG1i1q2I9nlBpfjoAk31rZKuJz1gXxSjdpScDKN7ddjJX/q7desrLtEkB+zn1Oks6oNHK5EkDNFqwjBRII3jNNVLy6tseKMQttzTE9LcQj98pY5A4TXyWu/fqebukSUb0nTjZAXy+129LpGPyJD1l5UDiBD1JRESnFQZWRNSvTJ482W8qYLuOVRnBgtk3SqXubcWWXxmrlbMmicfetloUJiExVTxslwXqz2Q8jGPHfq8HbeM49pasbfaUsANl4vx6kTsdMA8vbNpgSwMEKlGqWrDMfmOHjJS8LSqPsk0Jk2SrV6jpb50/PsZNgjyD4rKO9m+rQ+I5Imh65H37aItb3zH6ns0yWsASJs4E1hXYB/6oeBd56xxImefVsqk+47ZaRImIqD9jYEVE/cpXX31lG7zC6Qyy19KERBE0ZeCJFz0P2EVPXieWCOvKjBaVMTerQRMyvmcdutwY1c4YujseaYuzxMP21bYR7Yzh2eU2dep9RY51d3mNNCiPk4WlN+kHbR3AeQaL2IpV3/ulnu4tZjrgSmTkeaUBYrIKKDPW/NETMG59CnNXygkRiB5QS/ybdSeyU9cjfaV1+HSjj5vPMPYBhXD8uu8aAWPAYDiwhJuWiE/tEcx1f5bivK97BI6cOzxBp7q+DZbrE98vK3+M/MwlSIu3px86yz8NLi2SiIj6JQZWRNSvxMfH24Zb//LLL9Fy8iTGjxqF8PBwhInilwia8tTLXWcYAx/IvjpDClGRI99gpFtU6o4g+SGXWPY15uo6YeNmIP27hXrobvFEPGOZe7hwcz/G8Ox6uPMRcsS7QmQ9fp17vTHU+DLP+5DMc7nbPBc5pLocObCjxiDtZ2Ir9R4rr3dKWbT3His3lQ4oWdMAJRFQvizOL38RxuprCrtuCAr1+5+Ky9sIkGpixLYuFM60bDvuOhSLkzVHWmxfCMc3A0bvlqdgHJmJ5bbP0hhGPy8lRlcQ1PVVIHuAeW7i+2WAHBXSGGjD4zC2vLYejgVX9N10UCIiCkmYK3BPbyKiHpWbm4vUSy7Rc3Zvb92KAUOHYsTo0XqJYWdJCUYMGqQCq6Fi/bAhQzAk2jZMnUfsKCB6gJ4Rmk8CrYOAKDFda6SXKfFjxDJLgCbrWUf5GxIPxMiNTM2wD3ceC4y1nENro++w3rZzaRXHrxf7FNucFNGROpTeh3teGiJiKfFQ32o5H/d+5D4s12Alr2eAOMeAQ4ubzPP2vh7J65pknVpxTHkfGmuNURPVuYhV/oZ+HzVWnIOelsxtzGtqNuc1WT/cet+COH6g64zdjVVDLgVePYjls/QyK/PztN1rk9dxvb8XFH0N5reMv8+7YhNSZjmxtOE/LC8cDl3u++8jNVW+zIyIiHobAysi6jPaCqyO19XhrU8+wed79uglhnlTp2J0XByiBw9GbEyM+hoV2YnR9+g0JoKjvU8i7PHhqHhmYa+0GBU9Ow5PXFCOvCus77YKHQMrIqK+g4EVEfUZbQVWRCGJHYWiJyLxxKhPkbfA3urZ7bY+hbAXp6Mi+wdI6MLWKomBFRFR38E+VkREdPqrqUTyw64O9OvqQvOz4Hrlxi4PqoiIqG9hYEVERGeGygp7P66eIoK69vu3ERFRf8fAioiIiIiIKEQMrIiIiIiIiELEwIqIiIiIiChEHBWQiPoMNSogRzgjChp/ZoiI+g62WBEREREREYWIgRUREREREVGIGFgRERERERGFiIEVERERERFRiBhYERERERERhYiBFRERERERUYgYWBERdRsncm4KQ9jKIj3fVYqw6qYcsXeTmA8Lw6oP9Kw/H6xCWFgKcvbr+U4xridlrefIQdmfgxS/90Ced4BzktuErRI1ApDXY7sHknF+bd4HIiKibsLAioionylaORcZetqQjOUuF5bP0bPdJgFpf3Eh79YEPR8MEewsSUe+nrOS11Gc8yzSxusFbiLgOtv/NooMupLtd8Agzm9NNoqT2wjIiIiIugkDKyIi6nkfrMLcFVlY6h2kqZY178DRw7k2BWFtBV3j07A0MwNPdLRVjYiIKEQMrIjoDGGmyxlfw3Sxp7XpVLK1Mg3NWO9JK7NvF+Y3TU2n/pl1Vm7Ry03mOehZRW/jlSqnAgj3sczzNOrOXSEmc9Mx1p1G52e/KkAxtxf1SvXyNqhj+qTXWRnH99wz//fUcy1y+Vik54rJFXPFOs89K3pDhE6Z85Gs5xV5zskZcORUoCLHoRd6yPMbm5aPrCIXCjP1Qj+Sr85CftoL7mMRERH1BAZWRNSvvPsu8L//60JLS4sqcvrtt1vVtMvl0rUCy0ieK57qXaquqzwbSBvr02coIy0PKeVGHZVep/r7zEVGZqGxnSiFmRmYawuuZNAhgghko8KsI+ZUUNFBRSvDRACRhEK9H5erEEnqPMXp/kUHFanyOHl+0ugEHaDIAERtX56CvLRAbUAeCbfmwfWXNHQk0U/KSH4Cifp+uYqyVBBlBHkyRbEC2aliUt275TqQKsIWERxmXW0Lq4A5y9U+AqUaqvMT69tNeZwzH1nIwBb2tSIioh7EwIqI+pWSEiA/vxX19fVobGwU0y5s29akppubm3WtNogHfPeD+fg0PJvj8G3dyFxqC1iK/pCOfBnI/MITCCT/olA9vLtTzj54QQRRDmSv8QQmRp2O0kFHkRmESEYfquD6NokAb41sDfK9zu7isPaTmnO3CqQy3mijveiDLeLOOZDoLyjsEolIFOdQXBq47Y2IiKirMbAion7jm2+McuyYC2++2YItW1pRXe3CV1+58MUXTWhqalItGm3xbiVJuDRFPOIXo9QyMp1jSqKekpwoFcEcpiV6teQkY36mCPLWb1Gpc87SYiA1BfNtwYLxgN8hIQcdpSjN9XOdiUl6quslJXasjUvdKyR1Y2CVgMRp4rPZFUT+IxERURdhYEVE/cbzzwMvvAARSEXgrruG4PbbB2HnznD8+c9RePHFASqwam1t1bW7lj3Y8lW6y99wCsYDfseFEHTsLxVhoh/jE0W4doYpKVVBLxERUU9gYEVE/cZDDzXjwQebMW1aAzZvLsff/34A06c3YNGiY/j3fz+qUgGDSge0EoFIwBHmLAK2fuiWrMQp/sIW3drVYfYWtA4RAZTftqkgr/O04tPKSERE1H0YWBFRvzF0qFGiooBRo4wSGRmmlg0bFobw8HA1Kl1bvPv++E/hs9KtTj6tH0ZfKLMlS6Xa5eZhiy0gMtLyvNn7/njVUS1L+Z0PrHT6od/r7COMtMQQgsd2GQFte62MREREXYmBFRH1G+vWhatSWhqJFSviRRmBsrIBeO21IXj99SEqqJLBVZvcI9YJ+3OwSA7fvaTtkfCS78qGQw5vbhkS3XhJr+U9TGrQhnykL/EMV+77Il8j6DH7ZUk+ddR7mORIe94jDlqHMW9LAtKWWEfmE/R19hlq1L5Qgsf2GMFqR/t+ERERhYKBFRH1Q3Jo71bVn8oYq8IlpvVw3+0MXuHIyRaRkn7f0tnpSCoKYvhuEezkuQqRpd7FZGw7t0QOd24duU8ENH+pQDbk+6V0HTGnhhp3k3XEftQ7qIw6T0yp8HknU/IvXKjIKcZcXSdMvgtqWiFcelRCd6An1tnfiaXJYcuLskRwprc/Ow8pOe2PT9j+e6w6wxPoqfdpqWDKGPijzZEDQ6EGAMnC/PY+VyIioi4UJh5C2n/xCxFRD8jNzUVqauBh9GT/qWefBdaubRalQrVO3XLLGFx7bR1+9KNTiI6OxtChQxElcwV9yJfVzkVxTkWQw5ZTt1Lv2gIKbcFp15DvAZMB65nwObf3M0NERD2HLVZE1G/I1pfwcKNERkZi0KBBKrgaMCBCzQ8YMKD9VEDqG+YsVy9Zdr8HrKvsz8ETKywpmkRERD2ETyBE1G9ERETgP/4jAoWFAzF+/HiMGTMG//xnFB5+OE5Nx8TEqOCK+gf5AuWktEU6PbArOJGzRKZ3dn0rGBERUXuYCkhEfQbTmog6hj8zRER9B1usiIiIiIiIQsTAioiIiIiIKEQMrIiIiIiIiELEwIqIiIiIiChEDKyIiIiIiIhCxFEBiajPkCOcXXTRRXqOiNrz8ccfc1RAIqI+gi1WREREREREIWJgRUREREREFCIGVkRERERERCFiYEVERERERBQiBlZEREREREQhYmBFREREREQUIgZWRHRGK346EYmLClCp54NV/PR9KHDqmZ7mLMB9iYl4ZpueD5bc7uliPRO8yo33WY5ViYJFibhvY0fvGBER0emNgRURndHihol/ouMgvwRt2zNIWTMYcUP1fE8bGofB4ktMnDEbHBEQPbYYm4d1aCMVjGXev9lyrMm491UXXv/JZD1PREREEgMrIqKOiovRE/3JMMRF6smOEEGcfbNaOPeVYZ+zVs8TERGRxMCKiPqF3K0j8OQ/EgKWN74YgsbGRrS0tOgt/FOpf4m6LCpAmV5uZauj65mJbzItLnH+L8XUetw5zZ4SZ98umFTBYjwj6rab0qdT/8x9P1Okl9sYKXqe44viTvuTxzkfd64Tk49cJdY9I5ZoXvv2bCNsewaJ0+4UVwr8cr65zisVUG0vrnWbfT9qvW3ffu5HW8cmIiLqZxhYEVG/8P43LmwoDly27mnCqVOn0NzcrLfwJQOflDVZKHS54BKlIv0t3P2IXqmpOnuzUaHruFyFyNq0GLP1Q//kn7wOV1GWmHIgu9yTEue9b1fRPCxObi9ougaPirqPXq1n/ZHBR/JiDM6pcJ9PzE+MYMdDBjuzsfjiQl1HlPJsONak6ABIHqcC2aliMlPWeVQsEXz2LersTfEEklc/auxHTGYVifWPya2GIS4aGKxyKAWVlrgZix3VyNDHLswENt8/G4nJ1mWiTrJXQNfWsYmIiPoZBlZE1C/ENn2Bi846hOtmwadMHVGKQfXftB1YiQf5F9f8/9u7/+AqqzuP458QiUlIUn66QGwk0KHaASw4oQ1M2arTujud2V1uJrqCZVRmoIzTkaK1Wql2Y1idnUJnC/aPdnSn1US7kWBg1XR2BobONGGkhqpl/VEsl8SYjAlpGh2IhOTuOc8991d+3CQ8CdwL75fzkOf3c56rOHw453yvDQgPaWkwqKBZsgI/D4eNqCa9ac/ZFlCWOycYXKo1JijoVLf3B/6e9mYFz9pesZD6ut2QuGHuHVzyAy9g7HwuWVDoVKs5t7XTbQ6jaf9W1ZdXac/arGh7HvGCXZz2Yzr0qgl6G5a6c8ySu1oB8271p7vMCfY53eoLmdX+s+Z4q9kz3L2zTBgzQcoEyTobCDtbFezuM29qLzPHkzQ0UH2vbnTPXnpzuH2VjT8ctO8Ddbteq1GfDQBAmiFYAUgLJdP/oAdvbdeejTmqLPtMd17fpJ9uuMrb3lTyZy3OPe6FqoGBAXfFID3d2q9KrVkSDhXervZsFS5xG55vej0sDy1rV48bpldcnK81j5lDGZkjFrjoePvQkHvbUOKFiX3dstHmwnSo+30TWv5ltbKjc5pMSJpR5PUiRS3eoNpQjQIF5um2J8i2e9YC3VVjjmWMNLHKhMgnB9+7R+154UB2vHt8/UbLC6dF371zjm1fQEUzYp9HZ58NoxnK9Ap+TOyzAQBIBQQrAGnF9kodPnxYa9euVXd3t9s7uo7WP5pf+9UXTT5Wj65dGB9ROnXggQxl5dtAVaad5eEhgbbnKZn8q+3/SrdrjXddbMn/2nazP2NQ8Yfx6FLLXil0/qxpaRwTXJa7VU/P29r9rUzlzDLPLd2qem+4nxv6N6LpyjS/1q5foFlxbY4EsozMcdVJ1EB/XAv7BhQy/wz0ue0hJvbZAACkAoIVgLTywgsv6O6773ZbY7do0U1uLdGJP9e6NSM6pC88Lyj0YnhIoDfyb1Rx86sSlke00p0xfl/QwuHC0fsf6A236jlWp612KGCLe+bDdkigG/o3ikB0jlPi8tLt17gzJs+lfDYAABONYAUgrdx22216/HFblW98ev7uOgX0uA4nzN/pUOtxt2pFhwuG5wUFm8NDAg8PKnAx2DULVphf/6B3jrjr3HL0Z/+ojG/9XO+ET7sAM1S0RNpX97vEeVo9LXrZrVod3eYlygNaneuebedCtf9O+2wVwBFdp2IT2mrffTOhzcFgrR7MyNBDryX0kU2wS/lsAAAmB8EKQFopLCzUl7/8Zbc1DnPKta1CqgjEKtN17K/Qxr1uw7puoQlf2/WTZ2Mxpml3mbyRgC8FdcrbM1TPCluo4mVtHFT1zn6xbuWjm3XhX6Xbo5s2VClQu1kV0bLuTdpz24/depjXG1dzl3552O0wMazuqc2qs6t/Co5QPGOGyn9i7l3xD4NKxoeHQN6frFKhb5fy2QAATA6CFYC0Y8PVvffeq5ycHLdnDHradePDdr7UTpW5OT0rD/+rquLnT5nwVdNYqf22VLg7pyy/QW3Vdh7WH9Ua+R6mkntUVR7+Hivvu5dsoYpB97Zznb7SGCmEMZLRv8eqsyCgmpYqTY22qUwF1SaUuOOWDXa2jTsC7tnFK3Xo9rbw3LC9La54xjW643uV7nus7HdK2WIR4XvnxL+vLTX/YkDTInPR5t+hB8x9vO+xmrBS6GN8NgAAaSQjZAe0A0AKqKmpUUlJidtKdODAAe8P31/60pfcnpjf//73+uSTT7Rs2TJ97nOfU37+yMUPZhcuUF6kmsRAr3r7s5Wd2asub9ifMbtQC6InGH2fqqs/VzOzpd6uZoWL2BVobtFMZdu/mjLHI2XIE+5t9H2avJS6uUKFC/Kk0c4rmKsi04DI34T19fYqMztb/XHXFcwtMm2M/V3ZQG+XzmTONO3pM7d31fmi7zYQe5dB97afSfSzcKLv5R07o1zz7lnnusKl5t318W0J78vSuejnZXjPzoz7DI0xPBvJHT16VOXlSauUAAAuEoIVgJQxWrD66KOP3NZQRUVFuvHGG71gNW3aNLcXuLwRrAAgdRCsAKSMZMEKwFAEKwBIHbFxIwAAAACAC0KwAgAAAACfCFYAAAAA4BPBCgAAAAB8IlgBAAAAgE8EKwAAAADwiXLrAFKGLbdO6Whg7Pg9AwCpgx4rAAAAAPCJYAUAAAAAPhGsAAAAAMAnghUAAAAA+ESwAgAAAACfCFYAAAAA4BPBCgAmQfsLZdpxxG1MsMYnylT9odvwYbLaOFHtAwAgnRCsAGCifVit+9bVuo0JdmSHVj3m1v2YrDZOVPsAAEgzBCsAaaGvr0/nzp1Tf3+/2wMAAJA6CFYA0sp7772n559/PmF56623dObMmTGFLjv8LSMjI7qUvdDujjgfVqss7njG7dWKP8O73uxrTLhP3NC3IzuU8fn1sn1B20vNsScaw/uNwc9OHIbXrurbbXsavZ/R8+Ke711fut2s1Wr954dpe4T3DkmG411gGyPHEtpt72X22baMuX0AAFyGCFYA0oYNVR9//LFuuOGGhKWjo0PvvPOOent7NTAw4M4eqvGJDM1bt0INoZBC3tKgFevmxQKACxyqbnPH21Sl9Zo3KFypZr1WnXgwdk65CRLb3DlffVShlioFzGplozn+o1K71wsd89ZJVS3u2eacJhNqBoeP2nWrdHJb7JyAedZ97py5d+5VqLHSrAW8++y9c663f4hr12lvaK/WXeu2B7vANtrnN1SYMLYr8nk0aocNUhUNXlvG3D4AAC5DBCsAaeHEiRM6ffq01zsSb/HixTp//ryam5t19uxZb8jg8Bp18DEbJB5VOEZYpXrUBIhwAGhX9a5YSAibq3W7wuHmmYTepUo1uDDinbPNhImavTo4YsGGRj2zrlaB6qdjYceEn6erAyZIPWOOxjHPf/Srbt2c86AJMrX7DiYGu0kxtjaW/qhBlS7sNT6xStsTPgsAAK5cBCsAaeGNN95Qfn6+5s2b5/VORRY7BNCy4SppsDpy0ISAgIpH6sXRSZ2skQJfKHbbzrW3qKxc2v6/cfGnvFiDzkrOPbvsa4k9OHO/Vmb2NulkXCAb8vyLZcxtLNVGL2zN84pUJAZVAACuXAQrAGll4cKFCgQC0WX27NnefjsE0M6xSj7PakWSYBW2oniyhq+F5x1F5i55i5vnlDrG1sa5dz4oO+BP5VXaGOldAwDgCkewApBWjh8/rl/84hfRpa2tzR0Zi8TeoeE0nRx+0J3/nqTwvKPwvKz4JclcqItubG0MDwE04uZ/AQBwpSNYAUgrtsdq7dq10SXSYzWqa4tNbKhNEqyKVVwu1Z446badDw9qb43PnqyRnu1V1NuROMfqUhlrG812eAhgSG3ekMD7+DJgAAAMghWAtPLXv/5V7777bnSJzLEalSsEsb00PsiES5yHy427IhSPrYqr1GeOb1uvWr9D3lwRiO2l8SXQwxX1AtUbU2OO0pjaGCvwYQtszL3z6cSKiAAAXMEIVgDS2vvvv+/Nr7I9V1OmTPHmBY2k9Ee2l6VJq6JziOZp/dKGaLnxSBlyrZuXePy/15nYNQ7REGfu4Uq121LkbdWKm8O0Sk3VbeMvSf7VjeEwY+8T9/1TCUb7HivrAtrY+IT5PGoCqronEgVjVRPnRdoylvYBAHAZygjZAfQAkAJqampUXl7uthLV19eroKBAhYWFbk/Y0aNHNWPGDBUVFSkvL887Z9q0ae4ocHlL9nsGAHBx0WMFIC2sXr1anZ2dqqqqSljmzJmj+fPnKysrSzk5OZo6daq7AgAA4OKhxwpAyuBv34Hx4fcMAKQOeqwAAAAAwCeCFQAAAAD4RLACAAAAAJ8IVgAAAADgE8EKAAAAAHyiKiCAlGErnJWUlLgtAKOx3+NGVUAASA30WAEAAACATwQrAAAAAPCJYAUAAAAAPhGsAAAAAMAnghUAAAAA+ESwAgAAAACfCFYAAAAA4BPBCgDiNO3eorp2tzFW7XXasrvJbVxix/aouHiPxtuakd67aXextuzvcFvxOlR3X7H2HHObg9nPZJh2dOzfouJU+awAAJhABCsAiDChpGxXjqbnue0xMQHjqa2qz5/uti+xbzypUOhJfdNtjslI7233n6rSM5sWuR0xTbtXauurUsGwr92kPaXmM1GBBh9etOkZVZ0qGzmQAQCQpghWABAxvcCtjEe+pk91q6mgs1XBYKs63eaYDPveJhwFdqpyW0DZ7T1un2X2FxebIOY2B/N6zMq0020O1tOercC2Su18rs5EUgAALh8EKwBXDm94WrH5g39kiQ1V84ao3fK4Wdunu5fGD38LD3mLXWOW6FA2GzJu0N0vmdV/uzV2v+GG47lnx/fU2GF28fcdfshdHO8eowxVTHh2uO1b9jclvsN9sVAz4nsfe9OEo0qtWdauWKyy72tCU3mV2lqqFHB7o+yzTRgLVLeprXrIUadH7cvWqHLfVtXRawUAuIwQrACklddfz9azz+arv7/fW+z6kSNZGhgYUCgUcmcNw4aS0q1a3RjyzrNLQ8VOlbmQsWjTKwo1Vpq1gKpaQnrFG/5mg8lKbf1KQ/SakA0Uu8pcAPmmngy1qarcrFbYc9wQPK8HaNAwuLzpyjE/IkPnbKiyw+za4u6bc//K5EPkFm/WK6FXtHmx2x5OwrPzNT1Xqr+/TN2PxrX/1a2qcAFq+Pc27WuqMO+0RssTur7s+5p7vBhQVnefhnza3jDEkGrWZqm7L8m/i87lWmNuv6MpIXoCAJDWCFYA0sp7701VfX2OPvvsM/X19em3v83R8eNTdO7cOS9ojainW/UmPFw3I6hgMLwsfdiEhAObZaNET3uzgmft9SH1dQfVbIe/tR/ToVdN4NiwNHpNMHe1AiZI1Z/uMud2qjXYLS9D9J8dxxC8DnWfMj+WFSoret+AXjKh5MlvhM8YVk+7moPNShiZNxYm9P1wWew520yo+Z/Dx7xAOex7q0lvmqwVKJ4/6H3s+5p7NMf3YsXxhiFG7pFMp+YXB6R3uqM9ZwAApDuCFYC0EQxO1cmTU9XTk6GGhixv+dvfpugvf8nUiRMZXtCyPSbDWnWLKlWrDdfHhrt1tiYJCdbiDaoN1ShQYOJFZBjhrAW6q8Ycy/AzsWqRbg2YYPH41zUrMmzPC01BtY5rctTYBIqvid3XPOczm6OmXK388J6h2rv1lvmxvGhGeHsSzChaLu1tkY2nAABcDghWANLGb36T5y0ffJCt73//Oj3wwOfN+tXat2+mXnppus6fP+8NCRxW53I95Ibt1d+/MjrfKOnQu563tftbmcqZZc61Ve684X5u6J8vPcoP1LgheDtVNszcp4kUGuhza2OUl6kM82Ogf7xdY2PX02//Pf1RreMtbQ8AQIoiWAFIG1u2nPaW66//RL/61R/061+/oRtu+EQbNjTr298ORuddDc8OY8tS4EU318gFpJ2BJMUgjtVpqx0K2OKuedgOCXRD/3zyhuAteci1xSw2ZL26VSuvqO94ukmLks0XAwAgjRCsAKSN3NwBTZsW0tSpIc2c2a9ZswZ01VUy+8L7MzIyvGVkPWpvdnONvJDVoErVq3uEjpmO7uNSeUCrc901djxd+++0z1YBHNUxBeMD20dB7XOrUW5OkreYkOVV0juVAvOO5i/QCvPjWHDyWtIRPGY+2+t07eR1igEAcFERrACkjddey/eWlpYc/fSni7Rr10J9+GG2Dh6co0OH5iQPVl4Z8vjeqR69vecpbTfR6pZVbtcgixbdJNXcpV8edjtM5Kl7arPq7OqfgiMHoPnFCuhl7X87ckaT9tz2Y7duuRLu8b1TnQe0Z12tAoFbvWIal1TPTfr7Cunl4OTNgOoKviwtKdLkzeICAODiIlgBSEMhDQyEF1urwg6lC68nGaNnS4E3rtbWUjefySwr789UVctDsZLiJfeoqjz8fU429PSs+IHXi7QjELlmpQ7d3qYGEzpihReu0R3fq3TfY+WC25xy1TRWqm5TZC7Xr3Rji+0di1ikzQfaVHWqzB23S5l2VDSoJpA/cjGNsXyP1YUY9N522OTym01rTXsmZ2Bik/cZVt5y08jvCgBAmskwfxCZgNkCAOBfTU2NSkpK3NZQtjjFc88VaP/+q/Wzn72lKVOm6LvfXaKvf71T5eUfKzc311umTh2hYt/sQi3Iiz82oN6u+PLlBZpbNFPZ9q+c+j71hv4VzC3STG9H2EBvl85kzlTe1D59GimvHr1v3P0SnmX3n1HmzDyZi1yFvrhnRbhnjqhgropmZulcQpsH8Z5rH2PbFn5G1rmuhBLoswsXKC+zV13RiohD31uzW1SVv0bnak/qnuXeSYm8tmSrP/o+icKfW3/sM4p37L9U/MIX1fzsKvUneV2M7ujRo+a/fd/VVAAAE4BgBSBljBasbGEKG6wOHLhaTz/9f7rqqqv0ne98UTfffFp33NGp7Oxs5eTkKDMz012BCzdbhe3/qaz/yNPru/5Zc9xe/zpUt22lPn3wrLbMT1LqHmNCsAKA1EGwApAyRgtWuMhmF6ptV5b+ffrr2v1PExOtOvZ/Vyu7f6hz2+ZNynd2XWkIVgCQOphjBQAYXmerlj4SUt2miSunsWhTnUKPLCVUAQAuOwQrAMCIOluDCfOz/PK+v4tUBQC4DBGsAAAAAMAnghUAAAAA+ESwAgAAAACfqAoIIGXYqoAAxoeqgACQGghWAAAAAOATQwEBAAAAwCeCFQAAAAD4RLACAAAAAJ8IVgAAAADgE8EKAAAAAHwiWAEAAACATwQrAAAAAPCJYAUAAAAAPhGsAAAAAMAnghUAAAAA+ESwAgAAAACfCFYAAAAA4BPBCgAAAAB8kf4fT/4ZCcyvjrUAAAAASUVORK5CYII=;" vertex="1" parent="1">
          <mxGeometry x="430" y="50" width="854" height="490" as="geometry" />
        </mxCell>
        <mxCell id="iPt_SDVUK2NoFskj7es--9" value="" style="endArrow=none;html=1;rounded=0;" edge="1" parent="1">
          <mxGeometry relative="1" as="geometry">
            <mxPoint x="667" y="212" as="sourcePoint" />
            <mxPoint x="690" y="212" as="targetPoint" />
          </mxGeometry>
        </mxCell>
        <mxCell id="iPt_SDVUK2NoFskj7es--13" value="1" style="edgeLabel;html=1;align=center;verticalAlign=middle;resizable=0;points=[];" vertex="1" connectable="0" parent="iPt_SDVUK2NoFskj7es--9">
          <mxGeometry x="-0.113" y="3" relative="1" as="geometry">
            <mxPoint as="offset" />
          </mxGeometry>
        </mxCell>
        <mxCell id="iPt_SDVUK2NoFskj7es--11" value="" style="endArrow=none;html=1;rounded=0;" edge="1" parent="1">
          <mxGeometry relative="1" as="geometry">
            <mxPoint x="690" y="212" as="sourcePoint" />
            <mxPoint x="690" y="400" as="targetPoint" />
          </mxGeometry>
        </mxCell>
        <mxCell id="iPt_SDVUK2NoFskj7es--12" value="" style="endArrow=none;html=1;rounded=0;" edge="1" parent="1">
          <mxGeometry relative="1" as="geometry">
            <mxPoint x="720" y="400" as="sourcePoint" />
            <mxPoint x="690" y="400" as="targetPoint" />
          </mxGeometry>
        </mxCell>
        <mxCell id="iPt_SDVUK2NoFskj7es--14" value="N" style="edgeLabel;html=1;align=center;verticalAlign=middle;resizable=0;points=[];" vertex="1" connectable="0" parent="iPt_SDVUK2NoFskj7es--12">
          <mxGeometry x="-0.5467" y="1" relative="1" as="geometry">
            <mxPoint as="offset" />
          </mxGeometry>
        </mxCell>
        <mxCell id="iPt_SDVUK2NoFskj7es--15" value="" style="endArrow=none;html=1;rounded=0;" edge="1" parent="1">
          <mxGeometry relative="1" as="geometry">
            <mxPoint x="666" y="160" as="sourcePoint" />
            <mxPoint x="1040" y="160" as="targetPoint" />
          </mxGeometry>
        </mxCell>
        <mxCell id="iPt_SDVUK2NoFskj7es--16" value="1" style="edgeLabel;html=1;align=center;verticalAlign=middle;resizable=0;points=[];" vertex="1" connectable="0" parent="iPt_SDVUK2NoFskj7es--15">
          <mxGeometry x="-0.113" y="3" relative="1" as="geometry">
            <mxPoint x="-142" as="offset" />
          </mxGeometry>
        </mxCell>
        <mxCell id="iPt_SDVUK2NoFskj7es--17" value="N" style="edgeLabel;html=1;align=center;verticalAlign=middle;resizable=0;points=[];" vertex="1" connectable="0" parent="iPt_SDVUK2NoFskj7es--15">
          <mxGeometry x="0.9465" y="4" relative="1" as="geometry">
            <mxPoint as="offset" />
          </mxGeometry>
        </mxCell>
        <mxCell id="iPt_SDVUK2NoFskj7es--18" value="" style="endArrow=none;html=1;rounded=0;" edge="1" parent="1">
          <mxGeometry relative="1" as="geometry">
            <mxPoint x="1100" y="260" as="sourcePoint" />
            <mxPoint x="1100" y="448" as="targetPoint" />
          </mxGeometry>
        </mxCell>
        <mxCell id="iPt_SDVUK2NoFskj7es--22" value="1" style="edgeLabel;html=1;align=center;verticalAlign=middle;resizable=0;points=[];" vertex="1" connectable="0" parent="iPt_SDVUK2NoFskj7es--18">
          <mxGeometry x="-0.8894" y="-1" relative="1" as="geometry">
            <mxPoint as="offset" />
          </mxGeometry>
        </mxCell>
        <mxCell id="iPt_SDVUK2NoFskj7es--19" value="" style="endArrow=none;html=1;rounded=0;" edge="1" parent="1">
          <mxGeometry relative="1" as="geometry">
            <mxPoint x="930" y="449" as="sourcePoint" />
            <mxPoint x="1100" y="449" as="targetPoint" />
          </mxGeometry>
        </mxCell>
        <mxCell id="iPt_SDVUK2NoFskj7es--21" value="N" style="edgeLabel;html=1;align=center;verticalAlign=middle;resizable=0;points=[];" vertex="1" connectable="0" parent="iPt_SDVUK2NoFskj7es--19">
          <mxGeometry x="0.9465" y="4" relative="1" as="geometry">
            <mxPoint x="-155" as="offset" />
          </mxGeometry>
        </mxCell>
      </root>
    </mxGraphModel>
  </diagram>
</mxfile>
